<svg viewBox="-54 0 512 512" xmlns="http://www.w3.org/2000/svg"><path d="M51 190h301v111H51zm0 0" fill="#cccac8"/><path d="M372 200l-8 128c-2 21-9 40-22 56l-80 103c-8 11-22 18-36 18h-49c-14 0-28-7-36-18L61 384c-13-16-20-35-22-56l-8-128h32l6 126c1 15 6 28 15 40l80 102c3 4 8 7 13 7h49c5 0 10-3 13-7l80-102c9-12 14-25 15-40l6-126zm0 0" fill="#78909c"/><path d="M378 171H25v-30C25 67 85 8 158 8h87c73 0 133 59 133 133zm0 0" fill="#4dd0e1"/><path d="M245 8h-30c73 0 133 59 133 133v30h30v-30C378 67 318 8 245 8zm0 0" fill="#26c6da"/><path d="M383 204H20c-7 0-12-6-12-12v-18c0-7 5-12 12-12h363c7 0 13 5 13 12v18c0 6-6 12-13 12zm0 0" fill="#26c6da"/><path d="M383 162h-30c7 0 13 5 13 12v18c0 6-6 12-13 12h30c7 0 13-6 13-12v-18c0-7-6-12-13-12zm0 0" fill="#00bcd4"/><path d="M134 121H94a16 16 0 0 1 0-32h40c2 0 4 2 4 4v24c0 2-2 4-4 4zm0 0M269 121h40a16 16 0 0 0 0-32h-40c-2 0-4 2-4 4v24c0 2 2 4 4 4zm0 0" fill="#53626b"/><path d="M347 68a7 7 0 1 0 13-9l-12-14a8 8 0 0 0-11 10l10 13zm0 0"/><path d="M403 174c0-10-8-19-18-20v-13c0-18-3-35-9-52a7 7 0 0 0-14 6c5 14 8 30 8 46v13H33v-13C33 71 89 15 158 15h87c24 0 48 7 69 21a7 7 0 1 0 8-13C299 8 272 0 245 0h-87C81 0 18 63 18 141v13c-10 1-18 10-18 20v18c0 5 2 9 5 13l-1 7v20c0 3 0 6 2 8-2 3-2 5-2 8v74c0 9 6 16 15 16h14c3 18 10 36 22 51l21 27a7 7 0 1 0 12-9l-21-28a94 94 0 0 1-19-41h15c3 11 8 23 15 32l80 103c5 6 12 9 19 9h49c7 0 14-3 19-9l80-103c7-9 12-21 15-32h15c-3 15-9 29-19 41l-80 103c-7 10-18 15-30 15h-49c-12 0-23-5-30-15l-39-50a8 8 0 0 0-12 9l39 50c10 13 25 21 42 21h49c17 0 32-8 42-21l80-102c12-15 19-33 22-51h14c9 0 15-7 15-16v-74c0-3 0-5-2-8 2-2 2-5 2-8v-20l-1-7c3-4 5-8 5-13zm-388 0c0-3 2-5 5-5h363c3 0 5 2 5 5v18c0 2-2 4-5 4h-64v-9a7 7 0 1 0-15 0v9H99v-9a7 7 0 1 0-15 0v9H20c-3 0-5-2-5-4zm369 37v22h-6l1-22zM77 323l-1-15h251l-1 15zm159 34c-22-3-46-4-69 0 4-11 15-19 28-19h13c13 0 24 8 28 19zm53 34l-36 47v-62c17 5 30 12 36 15zM19 232v-20-1h5l1 22h-6v-1zm20-21h17l1 22H40zm293 0l-1 22H72l-1-22zm-4 82H75l-2-45h257zM58 248l4 75H46l-5-75zm287 0h17l-5 75h-16zm1-15l1-22h17l-1 22zM19 322v-74h7l5 75H19v-1zm60 16h83c-6 6-10 14-11 23-22 6-38 14-45 20l-16-20c-5-7-9-15-11-23zm71 39v61l-35-45c10-7 23-13 35-16zm45 90c-16 0-30-14-30-30v-64c24-5 50-5 73 0v64c0 16-14 30-30 30zm118-106l-15 19c-7-5-23-13-46-19-1-9-5-17-11-23h83c-2 8-6 16-11 23zm71-39v1h-12l5-75h7zm0 0"/><path d="M94 82a23 23 0 0 0 0 47h40c6 0 11-6 11-12V93c0-6-5-11-11-11zm36 32H94a8 8 0 0 1 0-17h36zm0 0M309 82h-40c-6 0-11 5-11 11v24c0 6 5 12 11 12h40a23 23 0 0 0 0-47zm0 32h-36V97h36a8 8 0 0 1 0 17zm0 0"/></svg>