<svg data-name="Warstwa 1" xmlns="http://www.w3.org/2000/svg" viewBox="0 0 476 420"><path d="M454 256a216 216 0 0 0 2-28 213 213 0 0 0-9-59H28a213 213 0 0 0-8 59 216 216 0 0 0 2 28z" fill="#31363e"/><path d="M468 257a38 38 0 1 1-37-38 38 38 0 0 1 37 38zM83 257a38 38 0 1 1-38-38 38 38 0 0 1 38 38z" fill="#d7a37e"/><path d="M426 228c0-102-84-185-188-185S50 126 50 228s84 185 188 185 188-83 188-185z" fill="#394048"/><path d="M238 340c-13 0-27 14-38 18a67 67 0 0 1-65-12c-34-29-55-71-55-118 0-85 71-155 158-155s158 70 158 155c0 47-22 90-55 118a67 67 0 0 1-65 12c-11-4-25-18-38-18z" fill="#f1be8c"/><path d="M339 289h-23a8 8 0 0 1 0-15h23a8 8 0 0 1 0 15zM160 289h-23a8 8 0 0 1 0-15h23a8 8 0 0 1 0 15z" fill="#e98e8f"/><path d="M362 44C333 23 292 8 238 8s-95 15-124 36l124 35z" fill="#bfbfbf"/><path d="M80 221h316a153 153 0 0 0-48-104H128a153 153 0 0 0-48 104z" fill="#d7a37e"/><path d="M423 114c10 19 14 33 14 33l-199 22-199-22s4-14 14-33l185-35z" fill="#bfbfbf"/><path d="M437 147H39a22 22 0 0 0 0 44h398a22 22 0 0 0 0-44zM423 114H53c11-21 30-49 61-70h248c31 21 50 49 61 70z" fill="#d6d6d6"/><path d="M280 79a42 42 0 1 1-42-43 42 42 0 0 1 42 43z" fill="#a6a6a6"/><path d="M255 79a17 17 0 1 1-17-17 17 17 0 0 1 17 17z" fill="#f3c44b"/><path d="M327 264a8 8 0 0 0 8-8v-17a8 8 0 1 0-15 0v17a8 8 0 0 0 7 8zM148 264a8 8 0 0 0 8-8v-17a8 8 0 0 0-15 0v17a8 8 0 0 0 7 8zM259 268a7 7 0 0 0-11 1 14 14 0 0 1-20 0 8 8 0 1 0-12 10 29 29 0 0 0 44 0 7 7 0 0 0-1-11zM262 79a24 24 0 1 0-24 24 24 24 0 0 0 24-24zm-24 9a9 9 0 1 1 9-9 9 9 0 0 1-9 9z"/><path d="M463 226a222 222 0 0 0-4-38 29 29 0 0 0-17-48 195 195 0 0 0-12-30c-11-20-31-49-63-72l-1-1C331 13 287 0 238 0c-50 0-93 13-128 37-33 24-53 53-64 73a196 196 0 0 0-13 30 29 29 0 0 0-17 48 222 222 0 0 0-3 38 45 45 0 0 0 44 75c20 49 61 88 112 107l16 6v-1a195 195 0 0 0 55 7h1c4 0 24-1 43-5a173 173 0 0 0 23-7c51-19 92-58 112-107a45 45 0 0 0 44-75zm-53-120H279a50 50 0 0 0 6-10 50 50 0 0 0-6-45h81a190 190 0 0 1 50 55zM238 15c36 0 69 7 97 21h-71a49 49 0 0 0-14-6 49 49 0 0 0-25 0 49 49 0 0 0-13 6h-71c28-14 61-21 97-21zm35 64c0 13-8 25-19 31a34 34 0 0 1-16 4c-19 0-35-16-35-35s16-35 35-35 35 16 35 35zM57 121h66c5 0 8-2 8-7a8 8 0 0 0-7-8H66a190 190 0 0 1 50-55h80a50 50 0 0 0 0 55h-42a8 8 0 0 0-8 8 8 8 0 0 0 8 7h58a50 50 0 0 0 13 6 50 50 0 0 0 25 0 50 50 0 0 0 14-6h154a184 184 0 0 1 8 19H49a186 186 0 0 1 8-19zM45 287a30 30 0 0 1-3-60v1a191 191 0 0 0 9 59 30 30 0 0 1-6 0zm-17-72l2-18a30 30 0 0 0 9 2h5v1l-1 12h-3a46 46 0 0 0-12 3zm390 31c-8 75-63 135-135 154a185 185 0 0 1-91 0c-71-19-126-79-134-154a177 177 0 0 1 2-47h15a160 160 0 0 0-3 29c0 48 21 93 58 124 20 16 47 21 72 13l16-8c7-5 14-9 20-9s13 4 20 9l16 8a76 76 0 0 0 24 4 74 74 0 0 0 37-10 8 8 0 1 0-7-13 60 60 0 0 1-49 5l-13-7c-9-5-18-11-28-11s-19 6-28 11l-13 7a60 60 0 0 1-57-11c-33-28-53-69-53-112a145 145 0 0 1 4-29h295a145 145 0 0 1-37 129 8 8 0 0 0 11 10 160 160 0 0 0 41-139h15a177 177 0 0 1 2 47zM39 184a15 15 0 0 1-14-15 14 14 0 0 1 14-14h398a14 14 0 0 1 14 14 15 15 0 0 1-14 15zm409 31l-2-1a45 45 0 0 0-11-2h-2v-2l-2-11h6a30 30 0 0 0 9-2l2 18zm-17 72a30 30 0 0 1-7 0 190 190 0 0 0 10-60 31 31 0 0 1 3 0 30 30 0 0 1-6 60z"/></svg>