<svg data-name="Warstwa 1" xmlns="http://www.w3.org/2000/svg" viewBox="0 0 54.1 68.4"><path d="M5 37c-2-2.4-3-1.2-4 .9a10.9 10.9 0 0 0 1 8.7c1.5 2.3 4 .8 4.2-.9S4.9 37 4.9 37z" fill="#ffc49d"/><path d="M5 41.8s-.6-3.2-1.4-4.2S1.8 41 1.8 41s1-1.3 1.2-.4.5 4.6 1 5.5 1-4.2 1-4.2z" fill="#ff5947" opacity=".4"/><path d="M49.7 37c1.8-2.4 3-1.2 4 .9a10.9 10.9 0 0 1-1 8.7c-1.6 2.3-4 .8-4.2-.9s1.2-8.7 1.2-8.7z" fill="#ffc49d"/><path d="M50.6 44s.1-3.9.7-4.8 2 2 2 2-.5-3.8-1.6-4.1-1.6 3.8-1.6 3.8z" fill="#ff5947" opacity=".4"/><path d="M50.4 49.6A30 30 0 0 1 49 57c-2.4 6.7-9.7 10.4-19.6 10.4s-19.3.8-22-5.7-3.6-20.4-3.1-30.2a22.2 22.2 0 0 1 3-10.2 20.3 20.3 0 0 1 18-10.1 29.5 29.5 0 0 1 5.9.5c7.8 1.7 12.7 6.4 14.5 11A126.4 126.4 0 0 1 49.3 35a46.2 46.2 0 0 1 1.1 14.7z" fill="#ffc49d"/><path d="M50.4 49.6c-1 1.1-2.4 1.8-4.5 2.8-5.3 2.4-29.3-4.3-29.3-4.3s9.6-4 16-2.7 7.8.1 7.8.1 2.8-2.4 2.8-9-5.7-14.9-5.7-14.9-2.4 3-12 3-13.2-4.5-13.2-4.5L7.5 25l-.1-3.7A20.3 20.3 0 0 1 25.3 11a29.5 29.5 0 0 1 5.9.6c7.8 1.6 12.7 6.4 14.5 11A126.4 126.4 0 0 1 49.4 35a46.2 46.2 0 0 1 1 14.6z" fill="#ff5947" opacity=".4"/><path d="M49.2 33.8v.6h-.7l-1.2-.2a131.4 131.4 0 0 0-5.8-11.9c-2.2-3.7-1.7-4.7-4.2-3.8s-5.5 3.4-13.6 2.5-12-2.8-12-2.8a25.3 25.3 0 0 0-3 5.6 23.7 23.7 0 0 0-.8 2.4c-1.3 4.7-.8 10.2-1.6 11.7a1.3 1.3 0 0 1-.3.4c-.7.6-1.6-.7-1.7-.8a3.7 3.7 0 0 0-1-1.6.8.8 0 0 0-1.1.2 28 28 0 0 1-1.7-5.9 18 18 0 0 1-.2-5c.6-5 5-11.6 5.2-11.8-.3-.3-3.2-7 1.2-11.4 4.5-4.6 7.4.1 12.7 1.8l.6.2 1 .3c4.3 1.2 6.6.6 6.6.6s-1-2.5 1.4-1.7l3 1.2a6.5 6.5 0 0 0 2 .5c1.7 0 1.1-2 2.6-1.6a10 10 0 0 1 3 1.7 18.3 18.3 0 0 1 4.9 6.1c2.5 5 4.3 7 4.7 12.8v9.9z" fill="#cb3300"/><path d="M30.8 7.2c-1.3 0-5.7-1.5-10.1-2.8S11.4 2.1 9.9 3c-1.8 1-1.6 4.6-1.7 7.7 0 1.9-.1 3.6-.8 4.4A18.5 18.5 0 0 0 2 25.7a9.6 9.6 0 0 1-1.8 4.5 18 18 0 0 1-.2-5c.6-5 5-11.6 5.2-11.8-.2-.3-3.2-7 1.2-11.4 4.5-4.6 7.4 0 12.7 1.8l.6.2 1 .3c4.3 1.1 6.6.6 6.6.6s-1-2.5 1.5-1.7l3 1.2c-.2 1 .7 3-1.1 2.8z" fill="#e08c56" opacity=".5"/><path d="M49.2 33.8a1.9 1.9 0 0 1-.7.6l-1.2-.2a131.4 131.4 0 0 0-5.8-11.9c-2.2-3.7-1.7-4.7-4.2-3.8s-5.5 3.4-13.6 2.5-12-2.8-12-2.8a26.4 26.4 0 0 0-3.8 8C6.6 30.9 7 36.4 6.3 37.9a1.3 1.3 0 0 1-.3.4c0-1.5-.7-15 .2-18a7 7 0 0 1 3.7-4.5s-2.5-7.6 1.5-10c2-1 4.7-1 7.4-.2l.5.2a43.3 43.3 0 0 1 7 2.8c3.8 2 13.3 2.2 13.2-3.6a18.3 18.3 0 0 1 4.9 6c2.5 5 4.3 7.1 4.7 12.9.2 4.4.1 8.3.1 9.9z" fill="#590022" opacity=".4"/><path d="M42.4 66.5c-8.4 2-25 3-31 0s-5.6-5.7-6.2-8l-.1-1.2c-.6-4.9-1.3-20.6-1.3-20.6L5.2 35s2 11.2 3.9 13c1.8.7 6.9-2.3 18.1-2.3s15.5 1.1 17.8 3a35.6 35.6 0 0 0 2-7.5 22.4 22.4 0 0 0 .3-7.2l.7-1.4 1.2 1.6s-.4-.3.3 1.2 2 16.1 2.4 19.1-1 9.8-9.4 11.9z" fill="#cb3300"/><path d="M42.4 66.5c-8.4 2-25 3-31 0s-5.6-5.7-6.2-8l-.1-1.2a12 12 0 0 0 5.5 5c7.4 3.5 27.6 2.7 34.2-5.6s3.2-24 3.2-24l1.2 1.6s-.4-.3.3 1.2 2 16.1 2.4 19-1 10-9.5 12z" fill="#590022" opacity=".4"/><path d="M19.7 25.7c0 1.5.3 2.5 0 3.5s-1 .8-3.7.4-5.4-.4-6.8.8-2-2.5-2.2-3.5-.5-1.9 1.3-2.5a24 24 0 0 1 8.1-.9c2 .4 3.1.6 3.3 2.2zM32 25.7c-.1 1.5-.3 2.5 0 3.5s.9.8 3.7.4 5.3-.4 6.8.8 2-2.5 2.1-3.5.6-1.9-1.3-2.5a23.9 23.9 0 0 0-8-.9c-2 .4-3.2.6-3.3 2.2z" fill="#cb3300"/><path d="M32.2 39.2c0-2.5.1-4 1.8-4.4a10.3 10.3 0 0 1 6.4.5c1.7.9 2 2 2 3.9s0 2.5-1 2.7-4.3-.4-6.4-.6-2.8 0-2.8-2.1zM19.6 39.2c0-2.5-.1-4-1.8-4.4a10.3 10.3 0 0 0-6.4.5c-1.6.9-2 2-2 3.9s0 2.5 1 2.7 4.4-.4 6.4-.6 2.9 0 2.8-2.1z" fill="#fff"/><path d="M17.6 37.9a3 3 0 1 1-3-3.1 3 3 0 0 1 3 3zM34 37.9a3 3 0 1 0 3.1-3.1 3 3 0 0 0-3 3z" fill="#cb3300"/><path d="M17.6 37.9a3 3 0 1 1-3-3.1 3 3 0 0 1 3 3z" fill="#cb3300"/><path d="M16.4 37.9a1.9 1.9 0 1 1-1.8-1.9 1.8 1.8 0 0 1 1.8 1.9z" fill="#2e0500"/><path d="M34 37.9a3 3 0 1 0 3.1-3.1 3 3 0 0 0-3 3z" fill="#cb3300"/><path d="M35.3 37.9A1.9 1.9 0 1 0 37 36a1.8 1.8 0 0 0-1.8 1.9z" fill="#2e0500"/><circle cx="13.6" cy="36.7" r="1.1" fill="#fff"/><circle cx="36.2" cy="36.7" r="1.1" fill="#fff"/><path d="M31.8 47.2c0 2.4-2.3 3.2-4.7 3.4h-.7c-2.6 0-5-1.1-5.1-3.3s.8-4.4 5-4.4c3.1 0 5.5 1.7 5.5 4.3z" fill="#ff997d"/><path d="M31.8 47.2c0 2.4-2.3 3.2-4.7 3.4l.4-.3c2.2-1.6 1.5-5.4-1.1-7.3 3 0 5.4 1.6 5.4 4.2z" fill="#ff5947" opacity=".4"/><path d="M35.7 57.4c-1.3 1.5-3.7 2.7-8 2.7S21.3 59 20 57.6a6 6 0 0 1-1.4-5.2l1.3.4a29.8 29.8 0 0 0 7.4.9 31.8 31.8 0 0 0 8.2-1.2l1.5-.4a6.7 6.7 0 0 1-1.3 5.3z" fill="#a73333"/><path d="M35.7 57.4c-1.3 1.5-3.7 2.7-8 2.7S21.3 59 20 57.6c2.5-1 2.8-1.5 7.4-1.5 4.3 0 6.3.4 8.3 1.3z" fill="#ff5959"/><path d="M35.7 52.5c.8 5-10.4 4.4-13.9 3.6-2.7-.6-2-1.9-2-3.3a30.6 30.6 0 0 0 7.6.9 33 33 0 0 0 8.3-1.2z" fill="#fff"/><path d="M19.7 39s0-2.5-.9-3.1a6.4 6.4 0 0 0-5-1 4.5 4.5 0 0 0-3.7 2.5c-.5.8 0 3-.2 3.3s-.5.3-.5-.2a32 32 0 0 1 0-3.7c.2-.6 1.1-1.7 3-2.2a11.4 11.4 0 0 1 5.3-.4 2.8 2.8 0 0 1 1.9 1.6 29 29 0 0 1 .1 3.3zM32.3 39s0-2.5.9-3.1a6.3 6.3 0 0 1 5-1 4.5 4.5 0 0 1 3.6 2.5c.5.8.2 3 .3 3.3s.5.3.5-.2a32 32 0 0 0 0-3.7c-.2-.6-1.2-1.7-3-2.2a11.4 11.4 0 0 0-5.3-.4 2.9 2.9 0 0 0-1.9 1.6 29 29 0 0 0-.2 3.3z" fill="#2e0500"/></svg>