<svg data-name="Warstwa 1" xmlns="http://www.w3.org/2000/svg" viewBox="0 0 512 512"><path d="M461 247a204 204 0 0 1-52 137 198 198 0 0 1-44 37 151 151 0 0 1-15 8 186 186 0 0 1-26 12l-17 5a204 204 0 0 1-42 6h-18-2a197 197 0 0 1-40-6l-16-5a201 201 0 0 1-27-12 151 151 0 0 1-15-8 198 198 0 0 1-44-37A205 205 0 0 1 245 43h11c113 0 205 91 205 204z" fill="#fec108"/><path d="M439 247a204 204 0 0 1-52 137 198 198 0 0 1-44 37 151 151 0 0 1-14 8 186 186 0 0 1-27 12l-16 5a201 201 0 0 1-41 6 197 197 0 0 1-40-6l-16-5a201 201 0 0 1-27-12 151 151 0 0 1-15-8 198 198 0 0 1-44-37A205 205 0 0 1 245 43a205 205 0 0 1 194 204z" fill="#ffeb3a"/><path d="M393 247a137 137 0 0 1-137 137 143 143 0 0 1-15-1 137 137 0 0 1 0-271 146 146 0 0 1 15-1 137 137 0 0 1 137 136z" fill="#f57c00"/><path d="M363 247c0-75-55-135-122-135s-122 60-122 135 55 136 122 136 122-61 122-136z" fill="#ff9801"/><path d="M360 247a102 102 0 0 1-3 26 92 92 0 0 1-6 17 103 103 0 0 1-27 36 100 100 0 0 1-15 12 104 104 0 0 1-53 14 86 86 0 0 1-10-1 103 103 0 0 1-43-13 100 100 0 0 1-15-12 103 103 0 0 1-27-36 92 92 0 0 1-6-17 103 103 0 0 1 0-51 92 92 0 0 1 6-17 103 103 0 0 1 27-37 102 102 0 0 1 15-11 103 103 0 0 1 43-13 91 91 0 0 1 10-1 104 104 0 0 1 53 14 102 102 0 0 1 15 11 103 103 0 0 1 27 37 92 92 0 0 1 6 17 102 102 0 0 1 3 25z" fill="#37474f"/><path d="M341 247a102 102 0 0 1-3 26 92 92 0 0 1-6 17 103 103 0 0 1-27 36 100 100 0 0 1-16 12 103 103 0 0 1-43 13 103 103 0 0 1-43-13 100 100 0 0 1-15-12 103 103 0 0 1-27-36 92 92 0 0 1-6-17 103 103 0 0 1 0-51 92 92 0 0 1 6-17 103 103 0 0 1 27-37 102 102 0 0 1 15-11 103 103 0 0 1 43-13 103 103 0 0 1 43 13 101 101 0 0 1 16 11 103 103 0 0 1 27 37 92 92 0 0 1 6 17 102 102 0 0 1 3 25z" fill="#607d8b"/><path d="M256 461a213 213 0 1 1 0-427 213 213 0 0 1 0 427zm0-410a196 196 0 1 0 0 393 196 196 0 0 0 0-393z"/><path d="M256 393a145 145 0 1 1 145-146 145 145 0 0 1-145 146zm0-274a128 128 0 1 0 128 128 128 128 0 0 0-128-128z"/><path d="M256 360a113 113 0 1 1 113-113 113 113 0 0 1-113 113zm0-208a96 96 0 1 0 96 95 96 96 0 0 0-96-95zM324 60a9 9 0 0 1-8-9V26a9 9 0 0 0-9-9H205a9 9 0 0 0-9 9v25a9 9 0 0 1-17 0V26a26 26 0 0 1 26-26h102a26 26 0 0 1 26 26v25a9 9 0 0 1-9 9zM486 316h-34a9 9 0 1 1 0-17h34a9 9 0 0 0 9-9V188a9 9 0 0 0-9-9h-34a9 9 0 1 1 0-17h34a26 26 0 0 1 26 26v102a26 26 0 0 1-26 26zM60 316H26a26 26 0 0 1-26-26V188a26 26 0 0 1 26-26h34a9 9 0 1 1 0 17H26a9 9 0 0 0-9 9v102a9 9 0 0 0 9 9h34a9 9 0 1 1 0 17z"/><path d="M196 341a9 9 0 0 1-8-8V162a9 9 0 0 1 17 0v171a9 9 0 0 1-9 8zM316 341a9 9 0 0 1-9-8V162a9 9 0 0 1 17 0v171a9 9 0 0 1-8 8z"/><path d="M154 205h204v17H154zM154 273h204v17H154zM121 456l26-34 13 10-25 34zM352 432l13-10 26 34-14 10zM333 512a9 9 0 0 1-8-6l-17-60a9 9 0 1 1 16-5l17 60a9 9 0 0 1-6 11 9 9 0 0 1-2 0zM180 512a9 9 0 0 1-3 0 9 9 0 0 1-5-11l17-60a9 9 0 1 1 16 5l-17 60a9 9 0 0 1-8 6zM256 512a9 9 0 0 1-9-9v-51a9 9 0 0 1 18 0v51a9 9 0 0 1-9 9zM265 77a9 9 0 1 1-9-9 9 9 0 0 1 9 9zM384 367a9 9 0 1 1-9-9 9 9 0 0 1 9 9zM435 247a9 9 0 1 1-8-8 9 9 0 0 1 8 8zM384 128a9 9 0 1 1-9-9 9 9 0 0 1 9 9zM145 128a9 9 0 1 1-8-9 9 9 0 0 1 8 9zM94 247a9 9 0 1 1-9-8 9 9 0 0 1 9 8zM145 367a9 9 0 1 1-8-9 9 9 0 0 1 8 9zM265 418a9 9 0 1 1-9-8 9 9 0 0 1 9 8z"/></svg>