<svg version="1" xmlns="http://www.w3.org/2000/svg" viewBox="0 0 512 512"><path fill="#c6c5ca" d="M409 437l-153 67-153-67-28-260L115 8h282l40 169z"/><g fill="#898890"><path d="M136 177h107v36H136zM310 177h107v36H310z"/><path d="M163 437l-28-260L174 8h-59L75 177l28 260 153 67 30-13z"/><path d="M116 177h107v36H116zM290 177h107v36H290z"/></g><g fill="#57565c"><path d="M290 177h34v36h-34zM116 177h34v36h-34z"/></g><g fill="#1d1d1f"><path d="M161 29h15v15h-15zM186 29h15v15h-15zM136 29h15v15h-15zM211 29h14v15h-14zM311 29h15v15h-15zM336 29h15v15h-15zM361 29h15v15h-15zM286 29h14v15h-14zM108 140h15v15h-15zM183 140h14v15h-14zM158 140h15v15h-15zM133 140h15v15h-15zM339 140h15v15h-15zM389 140h15v15h-15zM315 140h14v15h-14zM364 140h15v15h-15zM289 428h15v15h-15zM289 378h15v15h-15zM289 278h15v15h-15zM289 303h15v15h-15zM289 403h15v15h-15zM289 328h15v15h-15zM289 253h15v15h-15zM289 353h15v15h-15zM331 404h15v15h-15zM331 379h15v15h-15zM331 304h15v15h-15zM331 279h15v15h-15zM331 329h15v15h-15zM331 354h15v15h-15zM373 329h15v15h-15zM373 379h15v15h-15zM373 354h15v15h-15zM373 304h15v15h-15zM207 328h15v15h-15zM207 353h15v15h-15zM207 303h15v15h-15zM207 403h15v15h-15zM207 428h15v15h-15zM207 378h15v15h-15zM207 253h15v15h-15zM207 278h15v15h-15zM166 379h15v15h-15zM166 304h15v15h-15zM166 354h15v15h-15zM166 404h15v15h-15zM166 279h15v15h-15zM166 329h15v15h-15zM124 354h15v15h-15zM124 329h15v15h-15zM124 379h15v15h-15zM124 304h15v15h-15z"/></g><g fill="#fff"><path d="M330 236h15v15h-15zM380 236h33v15h-33zM355 236h15v15h-15z"/></g><g fill="#1d1d1f"><path d="M403 0H109L67 176l29 266 160 70 160-70 29-266L403 0zM121 15h128v42h15V15h127l10 42h-19v15h23l4 18h-50v15h54l14 64H297v-58l-41-37-41 37v58H85l18-77h33V77h-30l15-62zm176 169h92v21h-92v-21zm-174 0h92v21h-92v-21zm279 248l-138 60v-69h-15v69l-139-60-18-172h30v-15H90l-7-61h25v36h122V117l26-23 26 23v103h122v-36h25l-27 248z"/><path d="M248 278h15v126h-15z"/></g><g fill="#fff"><path d="M248 172h15v84h-15zM248 122h15v15h-15zM248 147h15v15h-15z"/></g></svg>