<svg data-name="Warstwa 1" xmlns="http://www.w3.org/2000/svg" viewBox="0 0 37.6 52.8"><path fill="#a58067" d="M33.7 37.8l-18 1.7 5.9 4.8L35 42.6l-1.3-4.8z"/><path d="M27.3 19c.8-2 2-4.6 4.3-3.7s6.6 8-.3 9.7c-5.7 1.4-4-6-4-6z" fill="#f29c61"/><path d="M28.3 19.4c.6-1.4 1.5-3.2 3.1-2.6s4.7 5.4-.3 6.6c-4.1 1-2.8-4-2.8-4z" fill="#d1834e"/><path d="M30.5 20.5c.3-.6.8-1.3 1.5-1.1s2 2.1-.3 2.7c-1.8.4-1.2-1.6-1.2-1.6z" fill="#f29c61"/><path d="M5.1 24.9C3.8 23.4 2 21.6.7 23.7s-1.3 9.8 4 7.7c4.3-1.8.4-6.5.4-6.5z" fill="#ffbc80"/><path d="M5.3 25.2c-1-1-2.6-2.4-3.6-.8S.5 31.8 4.8 30c3.6-1.4.5-4.8.5-4.8z" fill="#f29c61"/><path d="M5.1 26.2c-.7-.6-1.7-1.2-2.5-.3s-1.1 4 2 2.9c2.5-1 .5-2.6.5-2.6z" fill="#ffbc80"/><path d="M37.5 39.8S29.4 49 24.4 50.5c-11.8 3.8-17.8-2.3-17.8-2.3s-5.3-32.5.8-38.8c3-3 11.7-7.2 14-5.6s17.7 32.6 16 35.9z" fill="#ffbc80"/><path d="M21.4 3.9a3.6 3.6 0 0 0-2.4-.2c4.2 2.6 9.2 11.6 10.2 18.7 1.5 10.4-4.3 16.5-11 17.5-5.6.8-11.3-4.8-13.7-13a189.3 189.3 0 0 0 2 21.4s6 6.2 17.8 2.4c5-1.6 13.1-11 13.1-11 1.7-3.2-13.5-34.2-16-35.8z" fill="#f29c61"/><path d="M31.1 21.5l1.2 6.6-6.7 5.8c-3.8-2.6-10.9-3.4-15.3 5l-3.9-3.5-3.7-16.5c.5 10 3.9 29.5 3.9 29.5s6.1 6.9 17.9 3c5-1.7 13-11.6 13-11.6.8-1.6-2.6-10-6.4-18.3z" fill="#b58a66"/><path d="M14 34.4c.2 1.3 2.9 3.8 4.9 2.4s2.9-4.5 2.9-4.5-3.8-2-7.9 1.8" fill="#a07453"/><path d="M30.4 20l.6 2.3a22.8 22.8 0 0 1 1.2 5.6v.2l.1 2.3c0 11.5-8.2 20.8-18.4 20.8a16.4 16.4 0 0 1-4.5-.6c3 1.7 8 3.4 15.1 1 5-1.6 13-11.8 13-11.8.8-1.7-3-11-7-19.7z" fill="#a07453"/><path d="M31.8 22.9l-.7.1S21.2 5.2 19.6 4.5c0 0 4.7-.6 8.6 6.4a31.1 31.1 0 0 1 3.6 12zM3.8 30.6l1.6.6C4 17.2 6.4 6.2 9 5.4c0 0-5.8 5.6-6.6 11.7-.3 2.4 1.4 13.5 1.4 13.5z" fill="#e56b2e"/><path d="M28.6 10.4L2.2 14.7s2.1-8.8 6-12c3.7-3 4-3.1 9.4-2 4.2.7 11 9.7 11 9.7z" fill="#9e6b5e"/><path d="M15.6 24.4c1.5 4.4 5.9 8.5 5 9.2s-1.2 2-2.6 2.4c-1 .4-1-.7-3-.8-1.2-.1 1.2-7.3.6-10.8z" fill="#ffbc80"/><path d="M17.9 22c-1.3-.3-1 4.5 3 4.5s5.6-2.1 5.9-3.4-6.4-.3-9-1zM14.6 22.2c1-.9 3 3.5-.5 5.3s-5.8.8-6.7-.2 5.4-3.2 7.2-5z" fill="#f29c61"/><g fill="#d35a24"><path d="M7.4 22.7l7.6-1.9.3 2.1c-2.7 1.3-6.2 3.3-7 3s-1-3.2-1-3.2zM16.7 20.4l8.7-2.1a3.4 3.4 0 0 1 .2 3.9c-1.2 1.9-5.6 0-8.5.2z"/></g><path d="M11.3 43.1h-.2c.3-1.5 5.4-5.8 14.6-6.4v.9c-8.6.6-14.1 4.4-14.4 5.5z" fill="#7a553c"/><path d="M10 42.2c.3-.2 1.7.4 1.7.4l-.4.5s-1.6-.6-1.2-.9z" fill="#7a553c"/><path d="M17.5 43c-1.4-.1-.6-1.8.6-2.1s4.4-1 3.5.3-1.4.8-2.2 1-.8 1-2 .8z" fill="#a07453"/><path d="M10.2 26.7l2.7-.5s-1.7 3.7-2.7.5zM22.7 23.8l-2.4.6s3.2 2.6 2.4-.6z" fill="#7a553c"/><path fill="#f29c61" d="M5 20.3l22-4.4-1.7-3.2-20 3.9-.3 3.7z"/><path d="M18.9 10.5a12.3 12.3 0 0 1-1.2 1.7l10.9-1.8S24.3 4.8 20.4 2a12 12 0 0 1-1.5 8.5z" fill="#845b4e"/><path d="M29.9 10.7A2.9 2.9 0 0 0 26.5 8L3 12.4A2.5 2.5 0 0 0 1.2 16l1 2L30 12.9z" fill="#9e6b5e"/><path d="M29.9 10.7A2.9 2.9 0 0 0 26.5 8l-1.7.4c1 .4 1.6 1 1.8 1.6.6 2.5-9 3.2-16.1 4.9a66.5 66.5 0 0 1-9 1.7l.7 1.5L30 12.9z" fill="#845b4e"/><path fill="#845b4e" d="M9 11.9l1 2 .2-2.5-1.2.5zM6.5 12.2l1 2.1.2-2.6-1.2.5zM3.7 12.6l1 2 .2-2.5-1.2.5zM1.8 13l1 2.1.2-2.5-1.2.5zM11.9 11.3l.9 2 .2-2.5-1.1.5zM15 10.7l.7 2.1.5-2.5-1.3.4zM17.9 10l.7 2 .5-2.4-1.2.3zM20.6 9.2l.7 2.1.5-2.5-1.2.4zM23.6 8.5l.8 2.1.5-2.5-1.3.4z"/></svg>