<svg xmlns="http://www.w3.org/2000/svg" viewBox="0 0 323 337"><path d="M315 162A154 154 0 0 1 49 266l-9-10-4-6-6-9a154 154 0 0 1-14-128l2-6 4-11 2-4a154 154 0 0 1 291 70z" fill="#b0ddff"/><path d="M162 8a155 155 0 0 0-23 1 154 154 0 0 1 0 305A154 154 0 1 0 162 8z" fill="#84caff"/><path d="M210 107v123a26 26 0 0 1-26 26H40l-4-6-6-9a154 154 0 0 1-14-128l2-6z" fill="#e1e4fb"/><path d="M210 107v123a26 26 0 0 1-26 26H40l-4-6-6-9a154 154 0 0 1-14-128l2-6z" fill="#e1e4fb"/><path d="M248 337H74a10 10 0 0 1-10-10v-30a10 10 0 0 1 10-10h174a10 10 0 0 1 10 10v30a10 10 0 0 1-10 10z" fill="#7985eb"/><path d="M248 287h-45a10 10 0 0 1 10 10v30a10 10 0 0 1-10 10h45a10 10 0 0 0 10-10v-30a10 10 0 0 0-10-10z" fill="#4b5be5"/><path d="M260 107a46 46 0 1 1-46-46 46 46 0 0 1 46 46z" fill="#7985eb"/><path d="M230 107a16 16 0 1 1-16-16 16 16 0 0 1 16 16z" fill="#fff"/><path d="M214 131a24 24 0 1 0-24-24 24 24 0 0 0 24 24zm0-32a9 9 0 1 1-9 8 9 9 0 0 1 9-8zM71 143a9 9 0 1 1-9-8 9 9 0 0 1 9 8zM139 143a9 9 0 1 1-8-8 9 9 0 0 1 8 8zM78 232a44 44 0 0 0 17 3 41 41 0 0 0 14-2 42 42 0 0 0 19-16 8 8 0 0 0-12-9 27 27 0 0 1-13 10 27 27 0 0 1-19 0 8 8 0 1 0-6 14z"/><path d="M30 255l4 5a163 163 0 0 0 26 27 18 18 0 0 0-4 10v30a18 18 0 0 0 1 2h17a2 2 0 0 1-2-2v-30a2 2 0 0 1 2-2h174a2 2 0 0 1 2 2v29a2 2 0 0 1-2 3h17a17 17 0 0 0 0-3v-29a18 18 0 0 0-3-9 162 162 0 0 0 61-126C323 72 251 0 162 0A161 161 0 0 0 17 89a159 159 0 0 0-6 15l-3 6a162 162 0 0 0 15 135l7 10zm-7-140v-1h19a8 8 0 1 0 0-15H29l2-3a146 146 0 0 1 131-81c80 0 146 66 146 147a146 146 0 0 1-60 118H75a147 147 0 0 1-18-17h127a33 33 0 0 0 34-33v-69a54 54 0 1 0-57-62H75a8 8 0 0 0 0 15h86a54 54 0 0 0 41 46v70a18 18 0 0 1-18 18H44l-2-2-6-9a146 146 0 0 1-13-122zm152-8a38 38 0 1 1 39 39 38 38 0 0 1-39-39z"/><path d="M56 324h209v3a10 10 0 0 1-10 10H66a10 10 0 0 1-10-10v-3z"/></svg>