<svg height="504pt" viewBox="-16 0 504 504" width="504pt" xmlns="http://www.w3.org/2000/svg"><path d="m456 144v232c0 4.40625-3.609375 8-8 8h-16v-167.992188l-8-8.007812h-376l-8 8.007812v167.992188h-16c-4.40625 0-8-3.59375-8-8v-232c0-79.59375 64.390625-144 144-144h152c79.59375 0 144 64.40625 144 144zm0 0" fill="#656d78"/><path d="m432 384v64c0 24-24 56-196 56s-196-32-196-56v-231.992188l8-8.007812h376l8 8.007812zm0 0" fill="#5d9cec"/><path d="m472 200v80c0 4.40625-3.609375 8-8 8h-8v-96h8c4.390625 0 8 3.59375 8 8zm0 0" fill="#545c66"/><path d="m16 192v96h-8c-4.40625 0-8-3.59375-8-8v-80c0-4.40625 3.59375-8 8-8zm0 0" fill="#545c66"/><path d="m155.71875 501.015625c18.722656 1.59375 40.394531 2.609375 65.488281 2.886719l79.28125-295.902344h-66.25zm0 0" fill="#87bcf4"/><path d="m308.769531 208-79.296875 295.953125c2.183594.015625 4.296875.046875 6.527344.046875.59375 0 1.144531-.015625 1.734375-.015625l79.3125-295.984375zm0 0" fill="#87bcf4"/><g fill="#434a54"><path d="m138 147.351562c-2.207031 0-4-1.792968-4-4v-56c0-2.207031 1.792969-4 4-4s4 1.792969 4 4v56c0 2.207032-1.792969 4-4 4zm0 0"/><path d="m146 123.351562c-2.207031 0-4-1.792968-4-4 0-2.207031 1.792969-4 4-4 6.617188 0 12-5.382812 12-12 0-6.617187-5.382812-12-12-12-2.207031 0-4-1.792968-4-4 0-2.207031 1.792969-4 4-4 11.03125 0 20 8.96875 20 20s-8.96875 20-20 20zm0 0"/><path d="m146 123.351562h-8c-2.207031 0-4-1.792968-4-4 0-2.207031 1.792969-4 4-4h8c2.207031 0 4 1.792969 4 4 0 2.207032-1.792969 4-4 4zm0 0"/><path d="m146 91.351562h-8c-2.207031 0-4-1.792968-4-4 0-2.207031 1.792969-4 4-4h8c2.207031 0 4 1.792969 4 4 0 2.207032-1.792969 4-4 4zm0 0"/><path d="m202 135.351562c-2.207031 0-4-1.792968-4-4v-32.007812c0-2.207031 1.792969-4 4-4s4 1.792969 4 4v32.007812c0 2.207032-1.792969 4-4 4zm0 0"/><path d="m178 135.351562c-2.207031 0-4-1.792968-4-4v-32.007812c0-2.207031 1.792969-4 4-4s4 1.792969 4 4v32.007812c0 2.207032-1.792969 4-4 4zm0 0"/><path d="m222 147.34375c-2.207031 0-4-1.792969-4-4v-55.992188c0-2.207031 1.792969-4 4-4s4 1.792969 4 4v55.992188c0 2.207031-1.792969 4-4 4zm0 0"/><path d="m238 147.351562h-16c-2.207031 0-4-1.792968-4-4 0-2.207031 1.792969-4 4-4h16c2.207031 0 4 1.792969 4 4 0 2.207032-1.792969 4-4 4zm0 0"/><path d="m258 147.351562c-2.207031 0-4-1.792968-4-4v-56c0-2.207031 1.792969-4 4-4s4 1.792969 4 4v56c0 2.207032-1.792969 4-4 4zm0 0"/><path d="m317.984375 147.351562c-2.207031 0-4-1.792968-4-4v-56c0-2.207031 1.792969-4 4-4s4 1.792969 4 4v56c0 2.207032-1.792969 4-4 4zm0 0"/><path d="m301.984375 103.34375c-2.207031 0-4-1.792969-4-4 0-4.40625-3.585937-7.992188-8-7.992188-4.410156 0-7.984375 3.585938-7.984375 7.992188 0 2.207031-1.792969 4-4 4s-4-1.792969-4-4c0-8.824219 7.167969-15.992188 15.984375-15.992188 8.824219 0 16 7.167969 16 15.992188 0 2.207031-1.792969 4-4 4zm0 0"/><path d="m201.984375 103.34375c-2.207031 0-4-1.792969-4-4 0-4.40625-3.578125-7.992188-7.984375-7.992188-4.414062 0-8 3.585938-8 7.992188 0 2.207031-1.792969 4-4 4s-4-1.792969-4-4c0-8.824219 7.175781-15.992188 16-15.992188 8.816406 0 15.984375 7.167969 15.984375 15.992188 0 2.207031-1.792969 4-4 4zm0 0"/><path d="m190 147.335938c-8.824219 0-16-7.167969-16-15.984376 0-2.207031 1.792969-4 4-4s4 1.792969 4 4c0 4.410157 3.585938 7.984376 8 7.984376 4.40625 0 7.984375-3.574219 7.984375-7.984376 0-2.207031 1.792969-4 4-4s4 1.792969 4 4c0 8.816407-7.167969 15.984376-15.984375 15.984376zm0 0"/><path d="m289.984375 147.34375c-8.824219 0-16-7.175781-16-16 0-2.207031 1.792969-4 4-4s4 1.792969 4 4c0 4.417969 3.582031 8 8 8 4.414063 0 8-3.582031 8-8 0-2.207031 1.792969-4 4-4s4 1.792969 4 4c0 8.824219-7.175781 16-16 16zm0 0"/><path d="m277.984375 135.34375c-2.207031 0-4-1.792969-4-4l.015625-32c0-2.207031 1.792969-4 4-4s4 1.792969 4 4l-.015625 32c0 2.207031-1.792969 4-4 4zm0 0"/><path d="m334 91.351562h-16.015625c-2.207031 0-4-1.792968-4-4 0-2.207031 1.792969-4 4-4h16.015625c2.207031 0 4 1.792969 4 4 0 2.207032-1.792969 4-4 4zm0 0"/><path d="m334 147.351562h-16.015625c-2.207031 0-4-1.792968-4-4 0-2.207031 1.792969-4 4-4h16.015625c2.207031 0 4 1.792969 4 4 0 2.207032-1.792969 4-4 4zm0 0"/><path d="m329.984375 119.34375h-12c-2.207031 0-4-1.792969-4-4s1.792969-4 4-4h12c2.207031 0 4 1.792969 4 4s-1.792969 4-4 4zm0 0"/></g><path d="m56 216c0 4.417969-3.582031 8-8 8s-8-3.582031-8-8 3.582031-8 8-8 8 3.582031 8 8zm0 0" fill="#5d9cec"/><path d="m432 216c0 4.417969-3.582031 8-8 8s-8-3.582031-8-8 3.582031-8 8-8 8 3.582031 8 8zm0 0" fill="#5d9cec"/></svg>