<svg viewBox="-16 1 511 512" xmlns="http://www.w3.org/2000/svg"><path d="M350 227l12 50h-62zm-157-78l-43 34 50 50h81l50-50-43-34zm-62 78l-13 50h63zm0 0" fill="#fe512e"/><path d="M282 191a42 42 0 1 1-84 0 42 42 0 0 1 84 0zm0 0" fill="#feef7f"/><g fill="#fe512e"><path d="M366 325l-126 21-125-21-11-16 14-32h244l15 32-11 16zm0 0M102 491l-68-18 37-90 56 15zm0 0M378 491l69-18-37-90-57 15zm0 0"/><path d="M115 325l-11-16 3-7-8-2-33 81 61 17 19-68zm0 0M381 300l-7 2 3 7-11 16-31 5 18 68 62-17zm0 0"/></g><path d="M301 403h-33l-28-27-28 27h-32l-19-19-9 4v61l55 55h66l56-55v-61l-9-4-19 19zm0 0" fill="#fff5cc"/><path d="M300 277l123-123 46-143-41 12-14 24-23-13-38 11 25 39v52l-97 97h-81l-97-97V84l24-39-37-11-24 13-14-24-40-12 46 143 123 123zm0 0" fill="#feef7f"/><path d="M152 449v-61l9-4 19 19h32l28-27 28 27h33l19-19 9 4v61l-36 36 79-19-19-68-18-68-95 16-95-16-18 68-18 68 79 19zm0 0" fill="#8ca4b7"/><path d="M263 471h-45l-15-15v-13h75v13l-15 15zm0 0" fill="#8ca4b7"/><path d="M350 227l-50 50h30l26-26zm0 0M131 227l-13 50h30l7-26zm0 0M223 149h-30l-43 34 50 50h30l-50-50zm0 0" fill="#c70024"/><path d="M228 191c0-18 12-33 27-40a42 42 0 1 0 0 79c-15-6-27-21-27-39zm0 0" fill="#ffb655"/><path d="M145 325l-11-16 14-32h-30l-14 32 11 16 125 21 15-3zm0 0M64 473l34-83-27-7-37 90 68 18 2-7zm0 0M383 398l30-8-3-7-57 15 25 93 28-7zm0 0" fill="#c70024"/><path d="M96 381l23-55-4-1-11-16 3-7-8-2-33 81 61 17 2-8zm0 0M365 330l27-4-11-26-7 2 3 7-11 16-31 5 18 68 28-8zm0 0" fill="#c70024"/><path d="M182 403h-2l-19-19-9 4v61l55 55h30l-55-55zm0 0" fill="#ffc477"/><path d="M45 21L12 11l46 143 123 123h30L88 154zm0 0" fill="#ffb655"/><path d="M425 386l-39-95-8 2-8-18-7-27-15 3 5 19h-35l111-112L480 0l-57 16-11 21-20-11-50 14 29 47v46l-93 92h-2a49 49 0 0 0 0-69h9l26 20 9-12-30-23H190l-29 23 9 12 26-20h9a49 49 0 0 0 0 69h-2l-93-92V87l29-47-50-14-20 11-12-21L0 0l52 158 111 112h-35l4-18-14-4-7 27-8 18-8-2-39 95 5 2-37 90 84 23 6-26 34 8 3-14-33-8 33-122 89 14 90-14 32 122-35 8 3 15 36-9 7 26 84-23-37-90zm-41 96l-21-79 42-11 32 76zM206 191a35 35 0 1 1 69 0 35 35 0 0 1-69 0zM65 150L23 22l24 7 17 28 27-15 25 7-21 33v57l102 101h87l102-101V82l-21-33 25-7 27 15 16-28 24-7-41 128-120 120H184zM44 468l32-76 42 11-21 79zm92-132l-14 53-2-1-44-12 24-59 10 15zm104 2l-121-19-6-11 10-23h235l10 23-6 11-122 19zm131-6l9-15 25 59-46 13-14-53zm0 0"/><path d="M336 383l-18-8-20 21h-27l-31-31-31 31h-26l-21-21-18 8v69l60 60h72l60-60zm-15 63l-51 51h-59l-52-51v-52l18 17h39l24-25 25 25h39l17-17zm0 0"/><path d="M270 429l-12-10-14 17h-7l-14-17-12 10 6 7h-21v23l19 19h51l19-19v-23h-21zm0 22v2l-10 10h-39l-10-10v-2zm0 0"/><path d="M250 247h30v15h-30zm0 0M225 247h15v15h-15zm0 0M200 247h15v15h-15zm0 0" fill="#fff"/></svg>