<svg viewBox="-44 0 512 512" xmlns="http://www.w3.org/2000/svg"><path d="M256 168l-11 1a325 325 0 0 1-66 0l-11-1-1-63c27-21 39-51 28-70-8-11-20-18-34-18l-2-16 18-1h71l17 1c-6 55-9 111-9 167zm0 0" fill="#f0c419"/><path d="M424 185l-1 12-3 78c-3 61-32 118-79 158l-81 69c-8 6-18 10-29 10h-38c-11 0-21-4-29-10l-81-69C36 393 7 336 4 275l-3-74v-4l-1-12C-4 91 66 10 159 1c6 55 9 111 9 167l-93-9a36 36 0 0 0-39 41l4 25c8 55 51 98 106 105l29 3a348 348 0 0 0 74 0l29-3c55-7 98-50 107-105l3-25 1-5a36 36 0 0 0-40-36l-93 9c0-56 3-112 9-167 94 9 163 90 159 184zm0 0" fill="#e64c3c"/><path d="M424 168v17l-1 12-3 78c-3 61-32 118-79 158l-81 69c-8 6-18 10-29 10h-38c-11 0-21-4-29-10l-81-69C36 393 7 336 4 275l-3-74v-4l-1-12v-17l1 11v5l1 13 2 60c3 61 32 119 79 158l81 69c8 7 18 10 29 10h38c11 0 21-3 29-10l81-69c47-39 76-97 79-158l3-60v-18zm0 0" fill="#c03a2b"/><path d="M389 195l-1 5-3 25c-9 55-52 98-107 105l-29 3a348 348 0 0 1-74 0l-29-3A123 123 0 0 1 40 225l-4-25v-5a36 36 0 0 1 39-36l93 9 11 1a325 325 0 0 0 66 0l11-1 93-9a36 36 0 0 1 40 36zm0 0" fill="#67b9cc"/><path d="M389 195l-1 5-3 25c-9 55-52 98-107 105l-29 3a348 348 0 0 1-74 0l-29-3c-34-5-65-23-85-51a567 567 0 0 1 328-84zm0 0" fill="#2fa8cc"/><path d="M212 477h19c5 0 9-2 13-5l16-17c3-3 5-7 5-12v-60a18 18 0 0 0-21-18l-29 5h-6l-29-5a18 18 0 0 0-21 18v60c0 5 2 9 5 12l16 17c4 3 8 5 13 5zm0 0" fill="#35495e"/><path d="M212 415l-4-1-18-9a9 9 0 1 1 8-16l14 7 14-7a9 9 0 1 1 8 16l-18 9-4 1zm0 0M212 459l-4-1-18-9a9 9 0 1 1 8-15l14 6 14-7a9 9 0 0 1 8 16l-18 9-4 1zm0 0" fill="#2c3e50"/><path d="M167 105l-6-88c14 0 26 7 34 18 11 19-1 49-28 70zm0 0" fill="#f3d55b"/><path d="M167 105c-5 5-11 8-17 12-38 22-79 21-93-3-13-23 7-60 45-82 18-10 38-16 59-15l6 88zm0 0" fill="#fb7b76"/></svg>