<svg xmlns="http://www.w3.org/2000/svg" viewBox="0 0 64 64"><path d="M58 27.1a4 4 0 0 0-1-.1H7a4 4 0 0 0-1 .1 26 26 0 0 1 52 0z" fill="#ffda44"/><path d="M8 37h48a24 24 0 0 1-48 0z" fill="#ffdaaa"/><path fill="#d80027" d="M39 12v6h-4v4h-6v-4h-4v-6h4V8h6v4h4z"/><path d="M61 31v2a4 4 0 0 1-4 4H7a4 4 0 0 1-4-4v-2a4 4 0 0 1 3-3.9 4 4 0 0 1 1-.1h50a4 4 0 0 1 1 .1 4 4 0 0 1 3 3.9z" fill="#ff5023"/><path d="M58.9 26.4a27 27 0 0 0-53.8 0A5 5 0 0 0 2 31v2a5 5 0 0 0 5 5 25 25 0 0 0 50 0 5 5 0 0 0 5-5v-2a5 5 0 0 0-3.1-4.6zM32 4a25 25 0 0 1 24.8 22H13v-2h-2v2H7.2A25 25 0 0 1 32 4zm0 56A23 23 0 0 1 9 38h46a23 23 0 0 1-23 22zm28-27a3 3 0 0 1-3 3H7a3 3 0 0 1-3-3v-2a3 3 0 0 1 3-3h50a3 3 0 0 1 3 3z" fill="#231f20"/><path d="M25 19h3v3a1 1 0 0 0 1 1h6a1 1 0 0 0 1-1v-3h3a1 1 0 0 0 1-1v-6a1 1 0 0 0-1-1h-3V8a1 1 0 0 0-1-1h-6a1 1 0 0 0-1 1v3h-3a1 1 0 0 0-1 1v6a1 1 0 0 0 1 1zm1-6h3a1 1 0 0 0 1-1V9h4v3a1 1 0 0 0 1 1h3v4h-3a1 1 0 0 0-1 1v3h-4v-3a1 1 0 0 0-1-1h-3zM11 20h2v2h-2z" fill="#231f20"/></svg>