<svg data-name="Capa 1" xmlns="http://www.w3.org/2000/svg" viewBox="0 0 287 409"><path d="M159 60l-15 32-16-32A119 119 0 0 0 24 178v54l120-29 119 29v-54A119 119 0 0 0 159 60z" fill="#c6c5ca"/><g fill="#898890"><path d="M252 225v-33l-89-15-89 15v33l89-22 89 22zM163 61l-4-1-1 2 5-1z"/><path d="M183 203l-20 5 100 24v-10l-80-19zM64 178a119 119 0 0 1 69-108l-5-10A119 119 0 0 0 24 178v54l40-10v-44z"/><path d="M280 333l-136 68L8 333v-97l136-33 136 33v97z"/></g><path fill="#57565c" d="M52 333v-97l114-28-22-5L8 236v97l136 68 22-11-114-57z"/><path fill="#ff7956" d="M160 59l-16 33-16-33 8-51h16l8 51z"/><path fill="#ff3f62" d="M142 59l9-51h-15l-8 51 16 33 7-15-9-18z"/><path fill="#898890" d="M233 225v-33l-89-15-89 15v33l89-22 89 22z"/><g fill="#1d1d1f"><path d="M287 337V230l-47-11v-34l-89-15V94l7-15 6-10a112 112 0 0 1 91 110v33h15v-34A127 127 0 0 0 166 55l-8-54h-29l-8 54A127 127 0 0 0 17 178v34h15v-34a112 112 0 0 1 92-110l12 26v76l-89 15v34L0 230v107l144 72zM135 58l7-43h3l7 43-8 17zM62 198l82-14 81 14v17l-81-20-82 20zm74 190L15 328v-86l121-30v28h15v-28l121 30v86l-121 60V251h-15z"/><path d="M66 121a96 96 0 0 0-19 51l15 1a82 82 0 0 1 16-43zM103 232h15v124h-15zM68 330h15v15H68zM68 241h15v54H68zM68 305h15v15H68zM33 249h15v78H33zM169 232h15v15h-15zM169 257h15v15h-15zM169 282h15v74h-15zM204 241h15v104h-15zM239 249h15v78h-15z"/></g></svg>