<svg data-name="Warstwa 1" xmlns="http://www.w3.org/2000/svg" viewBox="0 0 51.4 61.2"><g fill-rule="evenodd"><path d="M38 36.9a6.6 6.6 0 0 0 5.2 8 6.4 6.4 0 0 0 7.7-5.4c.7-4-1.6-7.7-5.2-8.4s-7 1.9-7.7 5.8zM13 36.9a6.6 6.6 0 0 1-5.1 8A6.4 6.4 0 0 1 0 39.4c-.7-4 1.7-7.7 5.2-8.4s7 1.9 7.8 5.8z" fill="#f6c085"/><path d="M43.4 13.5a19.5 19.5 0 0 0-14.7-8.1h-.3v-.2H22.7v.2h-.3a19.5 19.5 0 0 0-14.7 8C4.2 18.3 3.7 24.3 4 30c.2 4.4 1 11.3 1.2 15.7 5.5 20.7 35.5 21 40.7 0 .2-4.4 1-11.3 1.1-15.7.3-5.7-.1-11.7-3.6-16.4z" fill="#f8c997"/><path d="M7.8 21.4c-.3.6 1.3-5.4 4.8-5.5 3.6 0 26.3 1.3 27.4-.2 3.9 4.8 6.4 24.8 6.6 24.7C47.8 40.2 48 30 48 28.7c0-5.2 1.5-15.4-8-21.7C34 3 22 2.7 15.2 4.9A17.9 17.9 0 0 0 4.3 15c-1.8 5.1-1.8 9.1-1.2 19.2 0 1.1.2 2.2.4 3.3 0 .8.2 1.5.3 2.2 1 3.9 1-13.8 4-18.4z" fill="#402412"/><path d="M6.5 16c.1.5.7 2.7 8.3 5.3A46.2 46.2 0 0 0 29 23.8a10.7 10.7 0 0 1-2.2-1.6s5.5 1.8 9.4 1.4 7-2.6 6.4-2.6a16.2 16.2 0 0 1-2.7-1 28.4 28.4 0 0 0 7.9-5.7c2.8-3.3 3.8-6.5 3.4-6.2s-2.8 1.6-2.5 1.1.7-5.3.7-5.3a16.8 16.8 0 0 1-2.7 1.6c-.7.1.6-4 .6-4s-5.8 1-9.2.6S32.9.6 28 .4a17.6 17.6 0 0 0-8 1.2l.7-1.6S13.8 2 12 3.4a18 18 0 0 0-3.6 4.1A11.1 11.1 0 0 0 5.2 7a5 5 0 0 0-2 .4l3.2 1A7.3 7.3 0 0 0 4 9.8c-1 1-2 2-1.5 1.8a17 17 0 0 1 3.1-.6z" fill="#402412"/><path d="M6.6 31.3a6.8 6.8 0 0 0-1.6 3 2.5 2.5 0 0 0-1.1.3 1.1 1.1 0 0 0 0 1.3 2.6 2.6 0 0 0 1 .2c0 6 3.3 10.2 9.5 10a8.1 8.1 0 0 0 7.1-4.3 15.4 15.4 0 0 0 1.9-4.8c.1-1.1.2-1.7.5-1.8a9 9 0 0 1 3.3 0c.2.1.4.7.5 1.8a16 16 0 0 0 1.8 4.8 8.1 8.1 0 0 0 7.2 4.3c6.2.3 9.4-4 9.4-10a2.7 2.7 0 0 0 1.1-.2 1.1 1.1 0 0 0 0-1.3 2.6 2.6 0 0 0-1.1-.3 6.7 6.7 0 0 0-1.6-3c-.9-.9-2.9-1.6-5.4-1.8-6.1-.5-20.4-.4-26.6 0-2.7.1-5 .8-5.8 1.8zM24 34c-.2 0-.4-.3-.4-.4-.2-1.2 0-3-1.6-3.2h7.3c-1.7.3-1.4 2-1.6 3.2 0 0-.3.5-.4.4a16.1 16.1 0 0 0-3.4 0zm5.3-2.8a8 8 0 0 1 3.6-1c2.7-.1 9.4-.3 11.4 2.1a5.2 5.2 0 0 1 1.2 3 14 14 0 0 1-.4 4c-1.2 4.3-4 6.3-8.3 6-5.7-.2-8.5-6.4-8.3-11.5 0-1.2.2-2.2.8-2.7zm-7.4 0c.6.4.8 1.4.8 2.7.2 5-2.6 11.2-8.3 11.5-4.2.3-7.1-1.8-8.3-6.1a14.4 14.4 0 0 1-.4-3.9 5.2 5.2 0 0 1 1.2-3c2-2.4 8.7-2.3 11.4-2.1a8 8 0 0 1 3.6.9z" fill="#3e3b3a"/><path d="M6.7 32.3a5.3 5.3 0 0 0-1.2 3 15 15 0 0 0 .4 4 8.3 8.3 0 0 0 3.4 5.2 8.4 8.4 0 0 0 5 1c5.8-.2 8.7-6.5 8.5-11.7 0-1.2-.3-2.2-.9-2.7a7.9 7.9 0 0 0-3.6-1 25 25 0 0 0-10 1 4.4 4.4 0 0 0-1.6 1.1zM28.3 33.8c-.2 5.1 2.6 11.4 8.3 11.7a8.3 8.3 0 0 0 5-1.1 8.2 8.2 0 0 0 3.4-5 14.8 14.8 0 0 0 .5-4 5.2 5.2 0 0 0-1.2-3.1 4.3 4.3 0 0 0-1.6-1.1 25 25 0 0 0-10-1 7.9 7.9 0 0 0-3.6.9c-.6.5-.8 1.5-.8 2.7z" fill="#5a5858"/><path d="M34 51.4a10.4 10.4 0 0 1-15.2 0 13 13 0 0 0 7.5 2.7 13.6 13.6 0 0 0 7.7-2.7z" fill="#d6825b"/><path d="M22.6 49.1a.3.3 0 0 1 .1-.3 35.6 35.6 0 0 0 2.7-9.4c.7 0-.7 7.2-1.3 9a11.6 11.6 0 0 1 2.1-.2c2 0 3.6.4 3.6.9s-1.6.9-3.6.9-3.5-.4-3.6-.9z" fill="#e5b17d"/></g></svg>