<svg data-name="Warstwa 1" xmlns="http://www.w3.org/2000/svg" viewBox="0 0 45.4 66"><defs><clipPath id="a" transform="translate(-181.2 -42.5)"><path d="M193.2 78.4s1-4.6-3.1-5.1c-4.6-.6-2.8 3.7-2.7 5s2.9 1.3 3.6 1.4c1.3.3 1.7 0 2.2-1.3z" fill="none"/></clipPath><clipPath id="b" transform="translate(-181.2 -42.5)"><path d="M199.2 78.8s-.8-3 .3-4.3 5.4-1 6.5.8a3.8 3.8 0 0 1-.8 5c-1.2.9-4.4-.1-4.7-.3-.5-.2-1.2-.4-1.3-1.2z" fill="none"/></clipPath></defs><path d="M38.3 50.5c-1.7 2.8-2.4 3.8-3.5 4.1s-3.1-1.4-3.1-3.3-1.6-5.7 1-8 8.4-2 8.4-2c.3 2.9-1.1 6.5-2.8 9.2z" fill="#aa2800"/><path d="M43.5 23c-.2 4.4-1.2 11.8-1.2 11.8s-7 7.5-10.5 8.8-3 1.4-3 1.4l-2-.2c-5.4-.6-20-2.1-21.3-3-1.6-1.2-2-3.4-2.4-5.2a31 31 0 0 0-2.3-7.5c-1.6-4.3.3-11.6.3-11.6a54.6 54.6 0 0 0-.8-7.7c-.6-3.6-.3-6.7 1-6.7a11.5 11.5 0 0 1 2.7.5A6.6 6.6 0 0 1 6 .4c1.4-1 1.8 0 7.9 2.2 5 1.7 11.9 2.9 16.9 4.5a24.1 24.1 0 0 1 3.1 1.1 10.4 10.4 0 0 1 5.5 6.3 5.6 5.6 0 0 1 .1.8s3.5 2.2 4 5.3a14.8 14.8 0 0 1 0 2.3z" fill="#aa2800"/><path d="M43.5 23c-.2 4.4-1.2 11.8-1.2 11.8s-7 7.5-10.5 8.8-3 1.4-3 1.4l-2-.2A344 344 0 0 1 28 26.9c1.8-1.6 2 .5 5.1 2.1s8.5-2 9.7-5.2c.2-.5.5-.8.8-.9z" fill="#3d000d" opacity=".4"/><path d="M41 41.3c.4 2.9-1 6.5-2.7 9.3s-2.4 3.7-3.5 4-3.1-1.4-3.1-3.3-1.6-5.7 1-8 8.4-2 8.4-2zM39.4 14.5c0 3-2.3 4.2-4.9 5.5-2.8 1.4-8 5-10.5 3.5s-21.6 7-21.8 3.9a65.8 65.8 0 0 1 .6-9.8l.1-1.7c.4-4-2-11.1-.7-10.7s6.4 1.9 6.4.1.6-2.3 2.6-.2 7.3 7.8 13.8 8c5.8 0 9.6-1 5.8-6a24.1 24.1 0 0 1 3 1.1 10.4 10.4 0 0 1 5.6 6.3z" fill="#3d000d" opacity=".4"/><path d="M33 59.7c-.9 1.2-7 4-11.5 5.5-2.1.7-3.9 1-4.5.7-2.1-1-1.8-2-1.8-2l.2-3 .1-1.3.1-2s7.8-7.2 9.8-7.8 8.2.1 8.7 1.7a3.3 3.3 0 0 1 .2.7c.3 2 0 5.9-1.2 7.5z" fill="#ff7a54"/><path d="M33 59.7c-.9 1.2-7 4-11.5 5.5.5-.5 3.7-4 2.5-4.5s-6.2 1.2-8.6.3l-.2-.2-.3-1 .6-.2c2.9-1.3 15.6-7 17-7.8a1.2 1.2 0 0 1 1.8.4c.3 2 0 5.9-1.2 7.5z" fill="#ff5947" opacity=".4"/><path d="M45.4 35.7c0 1.7-1.4 5-4.3 8.2s-4.1.4-4.1.4a11.8 11.8 0 0 1-.3 3.6c-.4 1-3 7-5.3 8.5a3.5 3.5 0 0 1-.5.2c-2.5.9-10 4.2-12.8 4.2s-6.9-1.4-7.6-2.5a4.3 4.3 0 0 1-.3-.7c-.4-1.3-.6-3.4-1-5.6-.6-2.6-3.4-6.4-4.3-8.4a12.7 12.7 0 0 1-1-4.4 35.5 35.5 0 0 1 0-3.7c.2-2.6-.8-4-1-6a13 13 0 0 1 0-2.5l.2-3 .8-6.2a11.8 11.8 0 0 0 7.2 3.1c4.7.5 8-1.1 9.8-1.4s1.4.8 3.1 2a20.9 20.9 0 0 0 5.2 1.8 26 26 0 0 0 .1 2.7 64.3 64.3 0 0 0 1.6 7.6 4.3 4.3 0 0 0 2.8 3l3-1.3a28.3 28.3 0 0 1 2.4-4.4c1-1.3 2.2-1.1 3.3-.5s3 3.5 3 5.3z" fill="#ffc49d"/><path d="M42 36.4s-1-3.1-2.8-1-2.3 9-2.3 9a11.8 11.8 0 0 1-.3 3.5c-.4 1-3 7-5.3 8.4a3.5 3.5 0 0 1-.5.3c-2.5.9-10 4.2-12.8 4.2s-6.9-1.4-7.5-2.5a3.7 3.7 0 0 1-.4-.7 23.3 23.3 0 0 0 3.4 1.4c2.8.8 10 .5 13.1-3.6S31 43 28.7 38.8 26.9 29 26.9 29s-5-5-7-5-4.2 1.7-8 .5-7-2.6-7-2.6-1.3 8-.6 11c.5 2.5.6 4.7-.4 6.3a33 33 0 0 1 0-3.7c.2-2.7-.8-4-1.1-6a13 13 0 0 1 0-2.5l.3-3 .8-6.2a11.8 11.8 0 0 0 7.2 3.1c4.7.4 8-1.2 9.8-1.4s1.4.8 3.1 2a20.9 20.9 0 0 0 5.2 1.8 26 26 0 0 0 .1 2.7 64.3 64.3 0 0 0 1.6 7.6c-.3 2.8 2.9 4.2 4 3.8a4 4 0 0 0 2.7-2.7c.7-1.8 2.4-4 3.8-2.2a4.6 4.6 0 0 1 .6 3.9z" fill="#ff5947" opacity=".4"/><path d="M12 36s1-4.7-3.2-5.2c-4.5-.6-2.7 3.7-2.6 5s2.9 1.3 3.6 1.4c1.2.3 1.7 0 2.2-1.3zM18 36.4s-.8-3.1.3-4.3 5.4-1 6.5.8a3.8 3.8 0 0 1-.8 5c-1.2.8-4.4-.2-4.7-.4-.5-.2-1.2-.4-1.4-1.1z" fill="#fff"/><path d="M24.5 45.6v.2c-.2 1.1-1.1 5.6-3.3 7-1.8 1-5.3.8-7.5.4a8.8 8.8 0 0 1-2.2-.5.8.8 0 0 1-.2-.2c-.3-.5 0-1.4-.2-2.6a12.2 12.2 0 0 0-1.1-2.6L9.3 46a24.6 24.6 0 0 0 6.5 1.7 6.6 6.6 0 0 0 .9 0 30.2 30.2 0 0 0 7.3-2z" fill="#a73333"/><path d="M24.4 45.8c-.2 1.1-1 5.6-3.3 7-1.7 1-5.2.8-7.5.4a7.6 7.6 0 0 1 2.6-3.7 26.2 26.2 0 0 1 2.8-2 19.7 19.7 0 0 0 5.4-1.7z" fill="#ff5959"/><path d="M24 45.8a3.2 3.2 0 0 1-.7 1.6 12.9 12.9 0 0 1-7.8 1.5 13.2 13.2 0 0 1-5.5-1.6L9.3 46a24.6 24.6 0 0 0 6.5 1.7c2.5.2 6.8-1.4 8.2-2z" fill="#fff"/><path d="M11 41.6h1.7c.7 0 3.1 2.2 3 3.2-.2.5-5 0-5.9-.4s.6-2.8 1.2-2.8z" fill="#ff997d"/><path d="M10.8 29a36.6 36.6 0 0 0-4.5-.9A18.7 18.7 0 0 0 3 28l.3-3c1.9-.4 5.6-.2 6.4.6s1.7 2.6 1 3.5zM17.2 26.3c-.7 1.6-1.3 3-.5 3.2s2.6-1.5 5.7-1.3 3.5 1.5 4 1.3.7-2.3.3-3-1.9-1.6-4.4-1.7-4.8.8-5.1 1.5z" fill="#aa2800"/><g clip-path="url(#a)"><path d="M12.5 34.4a2.5 2.5 0 1 1-2.2-2.9 2.6 2.6 0 0 1 2.2 2.9z" fill="#aa2800"/><ellipse cx="10" cy="34.1" rx="1.3" ry="1.4" fill="#480b00"/><path d="M9.7 33.3a.8.8 0 1 1-.7-.8.8.8 0 0 1 .7.8z" fill="#fff"/></g><g clip-path="url(#b)"><path d="M25.7 35.2a2.6 2.6 0 1 1-2.4-3 2.6 2.6 0 0 1 2.4 3z" fill="#aa2800"/><ellipse cx="23.1" cy="35" rx="1.3" ry="1.4" fill="#480b00"/><path d="M22.8 34.1a.8.8 0 1 1-.8-.8.8.8 0 0 1 .8.8z" fill="#fff"/></g><path d="M12 36s.1-2.4-.6-3.5a3.9 3.9 0 0 0-3.5-1.7c-1.3.2-1.8.8-1.8 2 0 .7.4 2.3.1 2.4s-.5-.7-.7-2a2.3 2.3 0 0 1 1.8-2.8 5.9 5.9 0 0 1 3.9.9 5.5 5.5 0 0 1 1.1 3.2c0 .8-.2 1.8-.4 1.6zM18 36s-.3-2.4.6-3.5 2.1-1.2 3.6-1c1.8.4 2.8 1 2.7 2.3 0 .7 0 1.8.3 2s.4-.5.4-2a2.8 2.8 0 0 0-2.5-2.6c-1.5-.4-3.4-.6-4.3.1a5 5 0 0 0-1.3 3.2c0 .8.3 1.8.4 1.6z" fill="#480b00"/></svg>