<svg data-name="Warstwa 1" xmlns="http://www.w3.org/2000/svg" viewBox="0 0 51 61.2"><g fill-rule="evenodd"><path d="M38 33.2a6.1 6.1 0 0 0 5.2 7.2c3.6.7 7-1.3 7.7-4.9a6.5 6.5 0 0 0-5.2-7.7 6.7 6.7 0 0 0-7.7 5.4zM13 33.2a6.1 6.1 0 0 1-5.2 7.2c-3.5.7-7-1.3-7.7-4.9a6.5 6.5 0 0 1 5.2-7.7 6.7 6.7 0 0 1 7.8 5.4z" fill="#f6c085"/><path d="M43.4 10.3a19.5 19.5 0 0 0-14.8-8.1h-.3V2h-5.6v.2h-.3a19.5 19.5 0 0 0-14.7 8C4.2 15 3.7 21 4 26.8 4.7 41.4 6 58 25.6 58.1S46.3 41.3 47 26.7a25 25 0 0 0-3.6-16.4z" fill="#f8c997"/><path d="M31.3 45.7c-1 5.8-10.3 5.8-11.3 0a33.8 33.8 0 0 0 11.3 0z" fill="#d6825b"/><path d="M5 31.2c.3-5.5.4-15.3 5.1-15.3 3.6 0 4.5.9 15.2.9 9.4 0 12.2-1.1 15.7-1.1 3.8 0 4.7 5 4.8 12.2l.2 4.3.2 2.6c0 .4 0 1.3.5 1.2s.6-2 .6-2.4a68.1 68.1 0 0 0 .5-8.5c0-5.3 1.5-15.4-8-21.7-5.7-3.9-17.7-4.3-24.4-2a17.7 17.7 0 0 0-10.7 10c-1.8 5.2-1.8 9.1-1.2 19.2 0 1.1.2 2.2.4 3.3a19.5 19.5 0 0 0 .3 2.2c.4 1.5 1 .4 1-.5-.1-1.5-.2-3-.1-4.4z" fill="#59341a"/><path d="M16.5 46a14.2 14.2 0 0 1-2.4.3 9 9 0 0 1-7-3.1A6.2 6.2 0 0 1 6 40.4l-.6-3.2c-.3-3.7-1.1-1-1.2 1.8a9.3 9.3 0 0 0 .4 2 49.2 49.2 0 0 0-.4 5.6C5.1 57.4 19 60.2 25.7 61.2c3.4-.5 12.6-2.7 14.7-4.2 5.5-3.8 7.3-8.1 6.5-16a9.3 9.3 0 0 0 .3-2c0-2.9-.8-5.5-1.2-1.8l-.5 3.2a6.2 6.2 0 0 1-1.1 2.8 9 9 0 0 1-7 3 14.4 14.4 0 0 1-2.5-.2 4 4 0 0 1 .6 2c0 2.8-3 5-6.9 5.9a3.2 3.2 0 0 1-.7-.4 7.5 7.5 0 0 1-2-2 7.9 7.9 0 0 1-2 2 3.8 3.8 0 0 1-1 .4c-4-.7-7-3-7-5.8a4 4 0 0 1 .6-2.1z" fill="#402412"/><path d="M25.7 41.5c-2.2-1.9-7.6 2.7-8.7 3.1a4.6 4.6 0 0 1-5.5-1.4 9.5 9.5 0 0 0 2 3.9c3 3.2 9 2.3 12.1-.4 3.1 2.7 9.2 3.6 12.1.4a9.4 9.4 0 0 0 2-3.9 4.6 4.6 0 0 1-5.3 1.4c-1.2-.4-6.5-5-8.7-3.1z" fill="#5d331a"/><g fill="#3e3b3a"><path d="M14.4 38a1.7 1.7 0 1 0-1.7-1.7 1.7 1.7 0 0 0 1.7 1.6zM36.6 38a1.7 1.7 0 1 0-1.6-1.7 1.7 1.7 0 0 0 1.6 1.6z"/></g><g fill="#59341a"><path d="M9 31.2c-.5-1 2.4-1.4 5.3-1.5 5 0 7.7 2.4 5.3 2.3-1.8 0-10.4-.6-10.5-.8zM42 31c.5-.9-2.4-1.3-5.3-1.3-5 0-7.6 2.4-5.2 2.3 1.7 0 10.3-.7 10.5-1z"/></g><path d="M23.3 40.4a.3.3 0 0 1 .2-.2 29.4 29.4 0 0 0 2.2-7.8c.5 0-.6 6-1 7.4a9.7 9.7 0 0 1 1.7-.2c1.6 0 3 .4 3 .8s-1.4.7-3 .7-3-.3-3-.7z" fill="#e5b17d"/></g></svg>