<svg data-name="Warstwa 1" xmlns="http://www.w3.org/2000/svg" viewBox="0 0 51 57"><g fill-rule="evenodd"><path d="M38 32.2a6.1 6.1 0 0 0 5.2 7.2c3.6.7 7-1.3 7.7-4.9a6.5 6.5 0 0 0-5.2-7.7 6.7 6.7 0 0 0-7.7 5.4zM13.1 32.2a6.1 6.1 0 0 1-5.2 7.2c-3.6.7-7-1.3-7.7-4.9a6.5 6.5 0 0 1 5.2-7.7 6.7 6.7 0 0 1 7.7 5.4z" fill="#f6c085"/><path d="M43.4 9.3a19.5 19.5 0 0 0-14.8-8.1h-.3V1H22.6v.2h-.3a19.5 19.5 0 0 0-14.7 8C4.1 14 3.6 20 4 25.8 4.7 40.4 6 57 25.5 57.1S46.3 40.3 47 25.7a25 25 0 0 0-3.6-16.4z" fill="#f8c997"/><path d="M6.1 30.4c.3-5.4.3-15.2 5-15.2.2 0 14.5-6 31-6 3.7 0 4.7 10.8 4.7 18 .1 6-1 8.8-.6 9s2.6-3.3 2.6-12c0-3.8 0-9.8-3.5-15.5-1.1-2-2-4.4-4.4-6-5.8-4-18.2-3-24.8-.9C-2.4 8 4.2 36.1 4.8 36.1s1.3-4.9 1.3-5.7z" fill="#bf9141"/><path d="M27.8 6.2C30.1 6 41.4 9 41.4 9a40.9 40.9 0 0 1-34 11.8s5.4-3.5 5-3.1a20.4 20.4 0 0 1-6.6 1.1c-1.6-.2-1.5-.8-1.5-.8 9.2-8.5 9-8.4 23.5-12z" fill="#bf9141"/><path d="M23 28.3a3.9 3.9 0 0 0-1.6-1.2c-4-1.4-14.7-.8-17.6 0-.4 0-.4 0-.5.3a8 8 0 0 0 0 2c.2.2.8.3 1.3 1 .9 1.3.8 6.2 3 8.5s10.7 2.4 13-.7a25.5 25.5 0 0 0 3-6.7A2 2 0 0 1 25 31a4 4 0 0 1 1 0 2 2 0 0 1 1.4.6 25.8 25.8 0 0 0 3 6.7c2.4 3.1 10.8 3 13 .7s2.2-7.2 3-8.5c.6-.7 1.1-.8 1.3-1a8 8 0 0 0 0-2c0-.3 0-.3-.4-.4a49.2 49.2 0 0 0-17.7.1 4 4 0 0 0-1.5 1.2 8 8 0 0 1-2.5.2 8 8 0 0 1-2.6-.2zm20.3-.5a1.8 1.8 0 0 1 1.4 1.2 11.8 11.8 0 0 1 0 4.7 11 11 0 0 1-1.5 4.1c-2.3 3-10 2.6-12 0-1.5-1.9-4-7.6-.9-9.2a25 25 0 0 1 13-.8zm-35.6 0a25 25 0 0 1 13 .8c3.1 1.6.6 7.3-1 9.3-1.8 2.5-9.6 2.8-12 0a10.6 10.6 0 0 1-1.4-4.2 11.8 11.8 0 0 1 0-4.7 1.8 1.8 0 0 1 1.4-1.2z" fill="#3e3b3a"/><g fill="#3e3b3a"><path d="M14.6 35.1a1.7 1.7 0 1 0-1.7-1.7 1.7 1.7 0 0 0 1.7 1.7zM36.4 35.1a1.7 1.7 0 1 0-1.6-1.7 1.7 1.7 0 0 0 1.6 1.7z"/></g><path d="M33.6 45.7a10.4 10.4 0 0 1-15.2 0 13 13 0 0 0 7.5 2.7 13.6 13.6 0 0 0 7.7-2.7z" fill="#d6825b"/><path d="M22.1 43.4a.3.3 0 0 1 .1-.2 35.6 35.6 0 0 0 2.7-9.5c.7 0-.7 7.3-1.3 9a11.7 11.7 0 0 1 2.1-.2c2 0 3.6.4 3.6 1s-1.6.8-3.6.8-3.5-.4-3.6-.9z" fill="#e5b17d"/><path d="M8.7 24.9c-.6-1 2.3-1.4 5.3-1.4 4.9 0 7.5 2.5 5.2 2.4-1.8 0-10.4-.7-10.5-1zM42.2 24.8c.5-1-2.4-1.4-5.3-1.4-5 0-7.6 2.5-5.2 2.4 1.8-.1 10.3-.8 10.5-1z" fill="#bf9141"/></g></svg>