<svg xmlns="http://www.w3.org/2000/svg" viewBox="0 0 55.996 55.996"><path d="M29.205 41h-2c-9.389 0-17-7.611-17-17h36c0 9.389-7.611 17-17 17z" fill="#d2b467"/><path d="M48.514 23.779c-.814.3-1.516.221-1.516.221h-.793c.264 4.298-2.331 8.393-5.628 11.807-6.744 6.983-18 6.983-24.743 0-3.298-3.414-5.893-7.509-5.629-11.807H8.998s-.485.06-1.116-.093l-.467 4.207a17.121 17.121 0 0 0 0 3.773l.379 3.408a17.075 17.075 0 0 0 4.899 10.192L21.205 54s1.327 1.529 2.817 1.954c.091.026.183-.048.183-.143v-2.337c0-.814.66-1.474 1.474-1.474h4.052c.814 0 1.474.66 1.474 1.474v2.373c0 .083.069.154.152.149C33.137 55.89 35.205 54 35.205 54l8.513-8.513a17.075 17.075 0 0 0 4.899-10.192l.379-3.408a17.121 17.121 0 0 0 0-3.773l-.482-4.335zM46.573 10.206a4.385 4.385 0 0 0-1.247-2.403c-.865-.854-1.689-1.749-2.315-2.792l-.835-1.392a4.39 4.39 0 0 0-2.813-2.027L36.11.868a36.428 36.428 0 0 0-15.81 0l-3.253.723a4.39 4.39 0 0 0-2.813 2.027l-.835 1.392c-.626 1.043-1.449 1.938-2.315 2.792a4.392 4.392 0 0 0-1.247 2.403L9.205 14h38l-.632-3.794z" fill="#464f5d"/><path d="M46.998 14l2.782 3.478c1.152 1.439 1.386 3.5.354 5.028C48.958 24.245 46.998 24 46.998 24h-38s-1.96.245-3.136-1.494c-1.032-1.527-.798-3.588.354-5.028L8.998 14h38z" fill="#4e5765"/><path d="M47.591 34.21l-9.156 7.122-4.098 7.172a1 1 0 0 0 1.736.992l3.902-6.828 8.517-6.624c.039-.25.096-.497.124-.749l.125-1.126a.991.991 0 0 0-1.15.041zM17.926 41.279L8.76 35.168a.983.983 0 0 0-.986-.053l.02.18c.069.619.173 1.233.308 1.838l8.383 5.589 3.889 5.833a.995.995 0 0 0 1.386.277 1 1 0 0 0 .277-1.387l-4.111-6.166z" fill="#5c697c"/><path d="M35.653 53.552l1.473-1.473-6.194-11.27c-.719.114-1.442.184-2.168.208l6.889 12.535zM18.319 51.114l1.46 1.46 6.855-11.606a17.404 17.404 0 0 1-2.124-.335l-6.191 10.481z" fill="#5c697c"/><g fill="#5c697c"><path d="M41.209 8.877c-.991-1-2.276-1.597-3.822-1.797l1.925-5.501-1.967-.437L32.845 14h2.12l1.737-4.963c1.285.087 2.328.489 3.076 1.238 1.45 1.452 1.464 3.712 1.464 3.735l2 .014c.001-.126.004-3.092-2.033-5.147zM17.275 1.54l1.76 5.574c-1.534.203-2.811.799-3.797 1.794-2.037 2.055-2.034 5.021-2.033 5.146l2-.014c0-.023.014-2.283 1.464-3.735.73-.731 1.742-1.131 2.985-1.231L21.209 14h2.096L19.234 1.105l-1.959.435z"/></g><path d="M16.52 24c2.57 8.555 6.405 14 10.685 14h2c4.28 0 8.115-5.445 10.685-14H16.52z" fill="#dfc57d"/></svg>