<svg height="512pt" viewBox="0 0 512.01266 512" width="512pt" xmlns="http://www.w3.org/2000/svg"><path d="m105.65625 511.757812c-6.78125-11.246093-6.78125-25.324218 0-36.570312h-55.886719c6.78125 11.246094 6.78125 25.324219 0 36.570312zm-32.511719-27.425781h9.140625c5.050782 0 9.144532 4.09375 9.144532 9.140625 0 5.050782-4.09375 9.144532-9.144532 9.144532h-9.140625c-5.050781 0-9.144531-4.09375-9.144531-9.144532 0-5.046875 4.09375-9.140625 9.144531-9.140625zm0 0"/><path d="m64 136.902344c0 5.050781-4.09375 9.144531-9.144531 9.144531-5.046875 0-9.140625-4.09375-9.140625-9.144531 0-5.050782 4.09375-9.144532 9.140625-9.144532 5.050781 0 9.144531 4.09375 9.144531 9.144532zm0 0"/><path d="m252.117188 57.59375c-3.152344 16.6875-12.84375 31.425781-26.921876 40.925781l-9.570312 6.492188 130.582031 54.632812c23.292969 9.730469 50.070313-1.199219 59.902344-24.453125 4.710937-11.175781 4.773437-23.773437.167969-34.996094-4.601563-11.222656-13.492188-20.148437-24.695313-24.796874l-134.042969-56.179688c5.484376 12.003906 7.082032 25.417969 4.578126 38.375zm113.597656 33.59375c15.148437 0 27.429687 12.28125 27.429687 27.429688 0 15.148437-12.28125 27.429687-27.429687 27.429687-15.148438 0-27.429688-12.28125-27.429688-27.429687.015625-15.140626 12.289063-27.414063 27.429688-27.429688zm0 0"/><path d="m374.855469 118.617188c0 5.050781-4.089844 9.140624-9.140625 9.140624-5.050782 0-9.144532-4.089843-9.144532-9.140624 0-5.050782 4.09375-9.144532 9.144532-9.144532 5.050781 0 9.140625 4.09375 9.140625 9.144532zm0 0"/><path d="m90.804688 189.722656c-10.554688 7.199219-23.03125 11.054688-35.804688 11.0625-2.835938-.023437-5.664062-.234375-8.46875-.628906l124.945312 158.257812c8.210938-7.195312 18.746094-11.183593 29.667969-11.226562h77.875l-146.511719-185.765625zm106.910156 128.03125c-1.894532 1.519532-4.3125 2.21875-6.726563 1.953125-2.410156-.269531-4.617187-1.484375-6.128906-3.378906l-73.144531-91.429687c-2.039063-2.550782-2.5625-6-1.375-9.039063 1.191406-3.042969 3.914062-5.222656 7.144531-5.710937 3.230469-.492188 6.476563.777343 8.515625 3.328124l73.140625 91.429688c3.15625 3.945312 2.515625 9.695312-1.425781 12.847656zm0 0"/><path d="m9.988281 145.257812c.101563.550782.21875 1.085938.328125 1.554688.546875 2.46875 1.300782 4.882812 2.25 7.222656.164063.429688.398438.835938.578125 1.261719 1.054688 2.414063 2.320313 4.726563 3.773438 6.925781l.273437.40625c14.214844 20.753906 42.535156 26.105469 63.34375 11.96875l134.390625-91.207031c20.710938-14.242187 26.039063-42.535156 11.921875-63.335937-14.113281-20.800782-42.375-26.300782-63.261718-12.3125l-134.390626 91.199218c-2.1875 1.519532-4.238281 3.226563-6.132812 5.097656-.625.609376-1.289062 1.359376-1.933594 2.058594-1.324218 1.433594-2.550781 2.953125-3.675781 4.542969-.394531.570313-.78125 1.085937-1.167969 1.6875-1.449218 2.25-2.695312 4.621094-3.722656 7.089844l-.113281.316406c-.960938 2.460937-1.707031 5-2.234375 7.589844-.148438.710937-.25 1.371093-.359375 2.039062-.441407 2.5-.671875 5.035157-.699219 7.574219 0 .429688.070312.832031.09375 1.257812.058594 2.371094.308594 4.730469.738281 7.0625zm182.011719-127.210937c15.148438 0 27.429688 12.277344 27.429688 27.425781 0 15.148438-12.28125 27.429688-27.429688 27.429688s-27.429688-12.28125-27.429688-27.429688c.019532-15.140625 12.289063-27.410156 27.429688-27.425781zm-19.992188 58.683594c1.410157 1.976562 1.980469 4.425781 1.582032 6.820312-.398438 2.390625-1.730469 4.527344-3.707032 5.9375l-64 45.714844c-4.109374 2.933594-9.820312 1.980469-12.753906-2.128906-2.933594-4.113281-1.980468-9.824219 2.128906-12.757813l64-45.714844c4.109376-2.929687 9.816407-1.976562 12.75 2.128907zm-95.035156 16.160156 64-45.714844c4.109375-2.9375 9.820313-1.980469 12.753906 2.128907 2.9375 4.109374 1.980469 9.820312-2.128906 12.753906l-64 45.714844c-4.109375 2.933593-9.820312 1.980468-12.753906-2.128907s-1.980469-9.820312 2.128906-12.753906zm-22.117187 16.582031c15.148437 0 27.429687 12.28125 27.429687 27.429688 0 15.148437-12.28125 27.429687-27.429687 27.429687-15.148438 0-27.425781-12.28125-27.425781-27.429687.015624-15.140625 12.285156-27.410156 27.425781-27.429688zm0 0"/><path d="m301.714844 411.1875c0 5.050781-4.09375 9.144531-9.144532 9.144531-5.046874 0-9.140624-4.09375-9.140624-9.144531 0-5.046875 4.09375-9.140625 9.140624-9.140625 5.050782 0 9.144532 4.09375 9.144532 9.140625zm0 0"/><path d="m310.855469 365.472656h-109.710938c-15.144531.019532-27.414062 12.289063-27.429687 27.429688v64h164.570312v-64c-.015625-15.140625-12.285156-27.410156-27.429687-27.429688zm-91.425781 73.144532c-11.09375 0-21.097657-6.683594-25.34375-16.933594-4.242188-10.25-1.898438-22.046875 5.949218-29.890625 7.84375-7.84375 19.640625-10.191407 29.890625-5.945313s16.929688 14.246094 16.929688 25.339844c-.015625 15.140625-12.285157 27.414062-27.425781 27.429688zm73.140624 0c-11.09375 0-21.09375-6.683594-25.339843-16.933594-4.246094-10.25-1.898438-22.046875 5.945312-29.890625s19.644531-10.191407 29.890625-5.945313c10.25 4.246094 16.933594 14.246094 16.933594 25.339844-.015625 15.140625-12.285156 27.414062-27.429688 27.429688zm0 0"/><path d="m201.144531 45.472656c0 5.050782-4.09375 9.144532-9.144531 9.144532s-9.144531-4.09375-9.144531-9.144532c0-5.046875 4.09375-9.140625 9.144531-9.140625s9.144531 4.09375 9.144531 9.140625zm0 0"/><path d="m228.570312 411.1875c0 5.050781-4.09375 9.144531-9.140624 9.144531-5.050782 0-9.144532-4.09375-9.144532-9.144531 0-5.046875 4.09375-9.140625 9.144532-9.140625 5.046874 0 9.140624 4.09375 9.140624 9.140625zm0 0"/><path d="m36.570312 493.472656c0 10.101563-8.1875 18.285156-18.285156 18.285156s-18.285156-8.183593-18.285156-18.285156c0-10.097656 8.1875-18.285156 18.285156-18.285156s18.285156 8.1875 18.285156 18.285156zm0 0"/><path d="m363.820312 181.484375c-7.179687-.027344-14.304687-1.269531-21.070312-3.671875l3.65625 54.476562c.449219 6.390626 2.21875 12.613282 5.1875 18.289063l9.589844 18.085937c5.609375 10.753907 15.300781 18.800782 26.902344 22.335938l43.730468 13.515625-28.105468-53.265625c-6.246094-11.5625-5.804688-25.589844 1.160156-36.734375 6.960937-11.144531 19.375-17.691406 32.503906-17.148437 13.128906.542968 24.957031 8.097656 30.976562 19.78125l28.089844 53.222656 13.507813-43.730469c3.609375-11.574219 2.453125-24.113281-3.214844-34.832031l-9.582031-18.074219c-3.011719-5.652344-7.167969-10.613281-12.207032-14.566406l-42.878906-33.828125c-4.089844-3.199219-9.023437-5.148438-14.199218-5.601563-.242188 7.75-1.902344 15.394531-4.898438 22.542969-10.035156 23.777344-33.339844 39.222656-59.148438 39.203125zm0 0"/><path d="m393.144531 493.472656c0 10.101563-8.1875 18.285156-18.289062 18.285156-10.097657 0-18.285157-8.183593-18.285157-18.285156 0-10.097656 8.1875-18.285156 18.285157-18.285156 10.101562 0 18.289062 8.1875 18.289062 18.285156zm0 0"/><path d="m462.230469 511.757812c-6.78125-11.246093-6.78125-25.324218 0-36.570312h-55.886719c6.78125 11.246094 6.78125 25.324219 0 36.570312zm-32.515625-27.425781h9.140625c5.050781 0 9.144531 4.09375 9.144531 9.140625 0 5.050782-4.09375 9.144532-9.144531 9.144532h-9.140625c-5.050782 0-9.144532-4.09375-9.144532-9.144532 0-5.046875 4.09375-9.140625 9.144532-9.140625zm0 0"/><path d="m512 493.472656c0 10.101563-8.1875 18.285156-18.285156 18.285156s-18.285156-8.183593-18.285156-18.285156c0-10.097656 8.1875-18.285156 18.285156-18.285156s18.285156 8.1875 18.285156 18.285156zm0 0"/><path d="m274.285156 493.472656c0 10.101563-8.1875 18.285156-18.285156 18.285156s-18.285156-8.183593-18.285156-18.285156c0-10.097656 8.1875-18.285156 18.285156-18.285156s18.285156 8.1875 18.285156 18.285156zm0 0"/><path d="m287.484375 475.1875c6.78125 11.246094 6.78125 25.324219 0 36.570312h55.886719c-6.78125-11.246093-6.78125-25.324218 0-36.570312zm32.515625 27.429688h-9.144531c-5.046875 0-9.140625-4.09375-9.140625-9.144532 0-5.046875 4.09375-9.140625 9.140625-9.140625h9.144531c5.050781 0 9.144531 4.09375 9.144531 9.140625 0 5.050782-4.09375 9.144532-9.144531 9.144532zm0 0"/><path d="m168.628906 475.1875c6.78125 11.246094 6.78125 25.324219 0 36.570312h55.886719c-6.78125-11.246093-6.78125-25.324218 0-36.570312zm32.515625 27.429688h-9.144531c-5.050781 0-9.144531-4.09375-9.144531-9.144532 0-5.046875 4.09375-9.140625 9.144531-9.140625h9.144531c5.046875 0 9.140625 4.09375 9.140625 9.140625 0 5.050782-4.09375 9.144532-9.140625 9.144532zm0 0"/><path d="m155.429688 493.472656c0 10.101563-8.1875 18.285156-18.285157 18.285156-10.101562 0-18.289062-8.183593-18.289062-18.285156 0-10.097656 8.1875-18.285156 18.289062-18.285156 10.097657 0 18.285157 8.1875 18.285157 18.285156zm0 0"/></svg>