<svg height="512pt" viewBox="-92 0 512 512" width="512pt" xmlns="http://www.w3.org/2000/svg"><path d="m297.160156 43.660156h-265.726562v-31.140625c0-2.769531 2.246094-5.019531 5.019531-5.019531h255.6875c2.773437 0 5.019531 2.25 5.019531 5.019531zm0 0" fill="#e8dacd"/><path d="m297.160156 43.660156h-29.746094v-36.15625h24.726563c2.773437 0 5.019531 2.246094 5.019531 5.015625zm0 0" fill="#e5ccb7"/><path d="m103.933594 504.496094h-74.40625c-6.761719 0-12.242188-5.480469-12.242188-12.242188v-22.679687h98.890625v22.679687c0 6.761719-5.480469 12.242188-12.242187 12.242188zm0 0" fill="#e8dacd"/><path d="m300.394531 504.496094h-74.40625c-6.761719 0-12.246093-5.480469-12.246093-12.242188v-22.679687h98.894531v22.679687c0 6.761719-5.480469 12.242188-12.242188 12.242188zm0 0" fill="#e8dacd"/><path d="m312.632812 469.578125v22.671875c0 6.765625-5.480468 12.246094-12.242187 12.246094h-21.34375c6.753906 0 12.234375-5.480469 12.234375-12.246094v-22.671875zm0 0" fill="#e5ccb7"/><path d="m116.175781 469.578125v22.671875c0 6.765625-5.480469 12.246094-12.242187 12.246094h-21.34375c6.753906 0 12.234375-5.480469 12.234375-12.246094v-22.671875zm0 0" fill="#e5ccb7"/><path d="m317.375 93.027344-20.152344-49.367188h-265.851562l-20.152344 49.367188c-2.453125 6.003906-3.714844 12.433594-3.714844 18.921875v346.902343c0 5.921876 4.800782 10.722657 10.71875 10.722657h96.53125c5.921875 0 10.71875-4.800781 10.71875-10.722657l15.027344-106.246093 22.753906-175.898438c.15625-1.222656 1.929688-1.222656 2.085938 0l22.753906 175.898438 15.027344 106.246093c0 5.921876 4.800781 10.722657 10.71875 10.722657h96.53125c5.917968 0 10.71875-4.800781 10.71875-10.722657v-346.902343c0-6.488281-1.261719-12.917969-3.714844-18.921875zm0 0" fill="#f79341"/><path d="m321.089844 111.953125v346.902344c0 5.921875-4.800782 10.71875-10.722656 10.71875h-19.085938v-355.617188c0-6.492187-1.265625-12.917969-3.71875-18.929687l-20.148438-51.371094h29.808594l20.148438 49.367188c2.457031 6.011718 3.71875 12.4375 3.71875 18.929687zm0 0" fill="#ef7e29"/><path d="m208.132812 129.011719h-12.023437c-4.425781 0-8.015625-3.589844-8.015625-8.015625v-88.242188c0-1.109375.898438-2.003906 2.003906-2.003906h24.046875c1.109375 0 2.003907.894531 2.003907 2.003906v88.242188c.003906 4.425781-3.585938 8.015625-8.015626 8.015625zm0 0" fill="#28c6db"/><path d="m132.484375 129.011719h-12.023437c-4.429688 0-8.015626-3.589844-8.015626-8.015625v-88.242188c0-1.109375.894532-2.003906 2.003907-2.003906h24.046875c1.105468 0 2.003906.894531 2.003906 2.003906v88.242188c0 4.425781-3.589844 8.015625-8.015625 8.015625zm0 0" fill="#28c6db"/><path d="m132.484375 129.011719h-6.011719v-98.261719h12.023438c1.105468 0 2.003906.894531 2.003906 2.003906v88.242188c0 4.425781-3.589844 8.015625-8.015625 8.015625zm0 0" fill="#17b5c1"/><path d="m208.132812 129.011719h-6.011718v-98.261719h12.023437c1.109375 0 2.003907.894531 2.003907 2.003906v88.242188c.003906 4.425781-3.585938 8.015625-8.015626 8.015625zm0 0" fill="#17b5c1"/><path d="m324.320312 90.191406-19.65625-48.148437v-29.523438c0-6.902343-5.617187-12.519531-12.523437-12.519531h-167.921875c-4.144531 0-7.503906 3.359375-7.503906 7.503906 0 4.140625 3.359375 7.5 7.503906 7.5h165.441406v21.152344h-66.007812v-3.402344c0-5.242187-4.261719-9.507812-9.503906-9.507812h-24.050782c-5.238281 0-9.503906 4.265625-9.503906 9.507812v3.402344h-32.589844v-3.402344c0-5.242187-4.265625-9.507812-9.507812-9.507812h-24.046875c-5.242188 0-9.507813 4.265625-9.507813 9.507812v3.402344h-66.003906v-21.152344h39.355469c4.144531 0 7.5-3.359375 7.5-7.5 0-4.144531-3.355469-7.503906-7.5-7.503906h-41.839844c-6.90625 0-12.519531 5.617188-12.519531 12.519531v29.511719l-19.664063 48.160156c-2.832031 6.9375-4.269531 14.261719-4.269531 21.757813v346.902343c0 7.003907 3.976562 13.085938 9.78125 16.136719v17.265625c0 10.886719 8.859375 19.746094 19.746094 19.746094h74.40625c10.886718 0 19.746094-8.859375 19.746094-19.746094v-17.539062c5.375-3.035156 9.074218-8.710938 9.285156-15.265625l14.976562-105.882813 16.355469-126.445312 13.765625 106.441406c.53125 4.109375 4.292969 7.011719 8.402344 6.476562 4.109375-.53125 7.011718-4.292968 6.480468-8.398437l-20.164062-155.898437c-.5625-4.320313-4.128906-7.453126-8.484375-7.453126-4.359375 0-7.925781 3.136719-8.484375 7.457032l-22.742188 175.808594-15.027343 106.246093c-.050781.351563-.074219.699219-.074219 1.050781 0 1.773438-1.441406 3.21875-3.214844 3.21875h-96.53125c-1.773437 0-3.21875-1.441406-3.21875-3.21875v-346.902343c0-5.542969 1.0625-10.957031 3.160156-16.085938l18.246094-44.699219h68.53125v69.832032c0 8.554687 6.960938 15.515625 15.515625 15.515625h12.027344c8.554687 0 15.515625-6.960938 15.515625-15.515625v-69.832032h32.589844v69.832032c0 8.554687 6.960937 15.515625 15.519531 15.515625h12.027344c8.554687 0 15.515625-6.960938 15.515625-15.515625v-69.832032h68.527344l18.25 44.699219c2.09375 5.128907 3.15625 10.542969 3.15625 16.085938v346.902343c0 1.773438-1.441407 3.21875-3.21875 3.21875h-96.527344c-1.773438 0-3.21875-1.441406-3.21875-3.21875 0-.351562-.023438-.703124-.074219-1.050781l-11.398437-80.589843c-.578126-4.101563-4.371094-6.953126-8.480469-6.378907-4.101563.582031-6.957031 4.378907-6.375 8.480469l11.332031 80.136719c.230469 7.078125 4.527344 13.132812 10.617188 15.941406v16.863281c0 10.886719 8.855468 19.746094 19.742187 19.746094h74.40625c10.890625 0 19.746094-8.859375 19.746094-19.746094v-18.046875c5.074219-3.238281 8.453125-8.902343 8.453125-15.355469v-346.902343c0-7.5-1.4375-14.820313-4.269532-21.757813zm-215.644531 386.882813v15.179687c0 2.613282-2.128906 4.742188-4.742187 4.742188h-74.40625c-2.613282 0-4.742188-2.128906-4.742188-4.742188v-15.179687zm24.320313-356.078125c0 .28125-.230469.511718-.511719.511718h-12.027344c-.28125 0-.511719-.230468-.511719-.511718v-82.746094h13.050782zm75.652344 0c0 .28125-.230469.511718-.515626.511718h-12.023437c-.285156 0-.515625-.230468-.515625-.511718v-82.746094h13.050781v82.746094zm96.484374 371.257812c0 2.613282-2.125 4.742188-4.738281 4.742188h-74.40625c-2.617187 0-4.742187-2.128906-4.742187-4.742188v-15.179687h83.886718zm0 0"/></svg>