<svg data-name="Warstwa 1" xmlns="http://www.w3.org/2000/svg" viewBox="0 0 56 95"><path fill="#c8d3d7" d="M55 1v60H32V21h-8v40H1V1h54z"/><path fill="#259bc9" d="M21 89H5L1 61h23l-3 28z"/><path d="M5 88h15a3 3 0 0 1 3 3v4H2v-4a3 3 0 0 1 3-3z" fill="#32b7e0"/><path fill="#259bc9" d="M52 89H36l-4-28h23l-3 28z"/><path d="M37 88h14a3 3 0 0 1 3 3v4H33v-4a3 3 0 0 1 4-3z" fill="#32b7e0"/><path fill="#259bc9" d="M1 40h23v9H1zM32 40h23v9H32z"/><g fill="#fff"><path d="M1 44zM24 45H1a1 1 0 1 1 0-2h23a1 1 0 1 1 0 2z"/></g><g fill="#fff"><path d="M32 44zM55 45H32a1 1 0 1 1 0-2h23a1 1 0 0 1 0 2z"/></g><g fill="#fff"><path d="M55 1zM55 2H1a1 1 0 0 1-1-1 1 1 0 0 1 1-1h54a1 1 0 0 1 0 2z"/></g></svg>