<svg data-name="Warstwa 1" xmlns="http://www.w3.org/2000/svg" viewBox="0 0 139 193.7"><g fill="#22272e"><path d="M137.8 187.2l-40-2.8c2-2 3-6 3.4-10.1a82.1 82.1 0 0 0 .4-11.5s26.4-4 26.4 0c0 2.7 1.5 7.2 3.3 11.5a126.8 126.8 0 0 0 6.5 12.8z"/><path d="M138.5 188.9a5.4 5.4 0 0 1 0 .5 7.7 7.7 0 0 1-1.6 4h-42a7.6 7.6 0 0 1-1.5-4 3.7 3.7 0 0 1 0-.4c0-6.2 10-11.3 22.5-11.3s22.6 5 22.6 11.2z"/></g><path d="M101.2 174.8a91 91 0 0 0 .4-12s26.4-4 26.4 0c0 2.7 1.5 7.4 3.3 12z" fill="#617085"/><path d="M138.5 189.2a7.7 7.7 0 0 1-1.6 4h-42a7.6 7.6 0 0 1-1.5-4z" fill="#515d6e" stroke="#515d6e" stroke-miterlimit="10"/><path d="M123.5 179.6c-3.1-2.7-10.5-1.8-14 0-.5.3 0 .8.6.7 2.2-.2 4-1 6.2-1 2.5 0 4.3.8 6.6 1 .5 0 .9-.5.6-.7zM122.2 182.3c-3.5-1.4-10.3-2-13.3.2-.5.3 0 .8.6.7a38 38 0 0 1 6.5-.5c2.1 0 3.9 1 6 .7.8-.2.8-.8.2-1z" fill="#515d6e"/><g><path d="M70.2 188.6a10.4 10.4 0 0 1-1.2 3.6s-63.6 1.7-68 .4c-.8-.2-.6-.6.3-1.1A10 10 0 0 1 2 190c2.2-3.4 8.4-8.6 25.5-8l7-2.2a9 9 0 0 0 4.9-4.8c2.5-5 3-11.8 2.5-13.2l27 .2s1 6.1 1.4 13a62.7 62.7 0 0 1-.2 13.6z" fill="#22272e"/><path d="M39.5 175.5c2.5-5.4 3-12 2.5-13.5l27 .3s1 5.9 1.4 13.2z" fill="#617085"/><path d="M70.2 188.6a10.4 10.4 0 0 1-1.2 3.6s-63.6 1.7-68 .4c-.8-.2-.6-.6.3-1.1A10 10 0 0 1 2 190c11 0 51 0 68-1.4z" fill="#515d6e" stroke="#515d6e" stroke-miterlimit="10"/><path d="M34.3 183c-1-2-6-2.7-8.7-1.6-.3.2-.4.4 0 .5 1.1.4 2.5.2 3.8.3s2 .9 3 1.3c.8.4 2.2 0 1.9-.6zM43.6 180.5c-.8-1.2-3.3-2.2-5.7-2.4-1.7 0-5.4.3-5 1.7l.5.1c1.1 0 2-.4 3.2-.3a7.6 7.6 0 0 1 3.5 1c.9.4 1.1 1 2.4 1 1 .1 1.3-.7 1-1z" fill="#515d6e"/></g><g><path d="M133.3 171.5H98.4L86 39.8c-1.2 0-2.4-.2-3.5-.3l-10 132.7h-35C37.2 120.8 42 1.3 41.3 0l74.5.4 9.9.1a63.3 63.3 0 0 1 1.8 7.6c7.2 38.5 6 148 5.9 163.4z" fill="#22272e"/><path d="M127.5 8h-10.6a76.7 76.7 0 0 0-.9-7.6l9.7.1a62.6 62.6 0 0 1 1.8 7.5zM107.2.3l-43-.2.4 8.5 43.4-.5c-.9-2.3-.8-5-.8-7.8zM53.8.1H41.4v8.8L55 8.7A18.7 18.7 0 0 1 53.8.1z" fill="#8c4c09"/><path fill="#c28c4b" d="M73.8.1h21.5v8.7H73.8z"/></g></svg>