<svg xmlns="http://www.w3.org/2000/svg" version="1" viewBox="0 0 590 590"><path d="M36 326L15 458h240l31-132zm0 0" fill="#fab349"/><path d="M71 0h448v92H71zm0 0M0 559l224 31 31-132H15zm0 0" fill="#61bdc7"/><path d="M519 92H71L56 193h478zm0 0" fill="#995c32"/><path d="M534 193H56L36 326h250l9-41 9 41h250zm0 0" fill="#ed5a2d"/><path d="M335 458l31 132 224-31-15-101zm0 0" fill="#61bdc7"/><path d="M554 326H304l31 132h240zm0 0" fill="#fab349"/><path d="M6 520l228 28 4-20L9 500zm0 0M581 500l-229 28 4 20 228-28zm0 0" fill="#69ccd7"/><path d="M335 458l31 132 224-31-15-101zm0 0" fill="#4eacb5"/><path d="M554 326H304l31 132h240zm0 0" fill="#f2a32c"/><path d="M581 500l-229 28 4 20 228-28zm0 0" fill="#69ccd7"/><path d="M534 193L519 92H394L292 193zm0 0" fill="#8a532d"/><path d="M292 193L160 326h126l9-41 9 41h250l-20-133zm0 0" fill="#e04e2d"/><path d="M448 0h71v92h-71zm0 0" fill="#4eacb5"/><path d="M254 31h21v203h-21zm0 0M305 31h21v203h-21zm0 0" fill="#f0ece9"/></svg>