<svg version="1" xmlns="http://www.w3.org/2000/svg" viewBox="0 0 205 205"><path d="M87 82c3-5 7-13 8-28l1-40c0-2-1-4-3-4L49 0a4 4 0 0 0-5 4 915 915 0 0 0 9 93l-2 6c-3 9-6 18-5 29 1 12 7 31 9 38 1 3-1 7-2 8-3 4-9 12-9 17v3a7 7 0 0 0 7 7h27a7 7 0 0 0 7-8l-5-18c-3-6 1-37 5-47 5-8 3-20 1-30l-1-12 2-8zm-17 26c-8 0-11-6-12-9a3 3 0 0 1 6-1c0 1 1 4 6 4 4 0 4-3 4-3a3 3 0 0 1 6 0c0 3-2 9-10 9zm91 87c0-5-6-13-9-17 0-1-3-5-2-8 2-7 8-26 9-38 1-11-2-20-5-29l-1-6c-2-6 0-16 2-27l2-15a915 915 0 0 0 3-54l-4-1-44 10c-2 0-3 2-3 4l1 40c1 15 5 23 8 28l2 8c1 3 0 7-1 12-1 10-3 22 1 30 5 10 8 41 5 47l-5 18a7 7 0 0 0 7 8h27a7 7 0 0 0 7-7v-3zm-14-96c-1 3-3 9-12 9-8 0-10-6-10-9a3 3 0 0 1 6 0c0 1 0 3 4 3 5 0 6-3 6-3a3 3 0 0 1 6 0z"/></svg>