<svg data-name="Warstwa 1" xmlns="http://www.w3.org/2000/svg" viewBox="0 0 108.6 105"><path d="M54.3 6.1v96.3h33.1S91.7-8 54.3 6zM54.3 6.1v96.3H21.2S16.9-8 54.3 6z" fill="#343132"/><path d="M31.2 7l2.9 5.2s7-2.8 20.2-3v-9S43.1-1.4 31.3 7z" fill="#635d51"/><path d="M46.2 15.8s-11.4 6.1-17.8-4.5l-.3 1.4-14 9.2v.1C13 23.7 0 43.2 1.3 104.5h15s-.8-33.2 6-55L19 102.4h31.5l.4-72z" fill="#5b4a42"/><path fill="#80807a" d="M0 97h16.3v8H0z"/><path d="M3.6 101.1a1.2 1.2 0 1 1-1.2-1.2 1.2 1.2 0 0 1 1.2 1.2zM47.7 38.5a2.1 2.1 0 1 0 2.2 2.1 2.1 2.1 0 0 0-2.2-2.1zM47.7 52.6a2.1 2.1 0 1 0 2.2 2.2 2.1 2.1 0 0 0-2.2-2.2zM47.7 66.8a2.1 2.1 0 1 0 2.2 2.1 2.1 2.1 0 0 0-2.2-2.1zM47.7 81a2.1 2.1 0 1 0 2.2 2 2.1 2.1 0 0 0-2.2-2z" fill="#a9a9ad"/><path d="M39.7 11C34.7 4.8 44 1 44 1 37.1.5 31.2 5 31.2 5l-5 7.1 8.5 12.4 11.4-8.8c-.2.2-1.8 1-6.4-4.7z" fill="#80807a"/><path d="M44.2 23.5a2.1 2.1 0 1 0 2.1 2.1 2.1 2.1 0 0 0-2-2.1z" fill="#a9a9ad"/><g><path d="M77.4 7l-2.9 5.2s-7-2.8-20.2-3v-9s11.2-1.5 23 6.8z" fill="#807970"/><path d="M62.4 15.8s11.4 6.1 17.8-4.5l.3 1.4 14 9.2v.1c1.2 1.7 14.1 21.2 12.8 82.5h-15s.8-33.2-6-55l3.2 52.9H58.1l-.4-72z" fill="#5b4a42"/><path fill="#918c80" d="M92.3 97h16.3v8H92.3z"/><path d="M105 101.1a1.2 1.2 0 1 0 1.2-1.2 1.2 1.2 0 0 0-1.2 1.2zM60.9 38.5a2.1 2.1 0 1 1-2.2 2.1 2.1 2.1 0 0 1 2.2-2.1zM60.9 52.6a2.1 2.1 0 1 1-2.2 2.2 2.1 2.1 0 0 1 2.2-2.2zM60.9 66.8a2.1 2.1 0 1 1-2.2 2.1 2.1 2.1 0 0 1 2.2-2.1zM60.9 81a2.1 2.1 0 1 1-2.2 2 2.1 2.1 0 0 1 2.2-2z" fill="#a9a9ad"/><path d="M68.8 11c5-6.2-4.3-10-4.3-10 7-.5 12.9 4 12.9 4l5 7.1-8.6 12.4-11.4-8.8c.3.2 1.8 1 6.4-4.7z" fill="#918c80"/><path d="M64.4 23.5a2.1 2.1 0 1 1-2.1 2.1 2.1 2.1 0 0 1 2-2.1z" fill="#a9a9ad"/></g></svg>