<svg data-name="Warstwa 1" xmlns="http://www.w3.org/2000/svg" viewBox="0 0 91.4 87.6"><path d="M41 22l4.6 12.3V30a1.4 1.4 0 0 1 0-2.8v-5.8a1.4 1.4 0 0 1 0-2.7V13a1.4 1.4 0 0 1-1.3-1.4 1.4 1.4 0 0 1 1.3-1.3V4.8a1.4 1.4 0 0 1 0-2.7V0H45l-5.2 7.6-3-4.7 4.1 19z" fill="#ececee"/><path d="M25.5 5.4A48.6 48.6 0 0 1 30.7 4a48.6 48.6 0 0 0-5.2 1.5z"/><path d="M46.5 0h-.8v2a1.4 1.4 0 0 1 0 2.7v5.6a1.4 1.4 0 0 1 0 2.7v5.7a1.4 1.4 0 0 1 0 2.7v5.8a1.4 1.4 0 0 1 0 2.8v4.2L50.4 22l4-18.8-2.7 4.3z" fill="#f7f7f7"/><path d="M47 11.7a1.4 1.4 0 0 0-1.3-1.4v2.8a1.4 1.4 0 0 0 1.4-1.4z" fill="#202025"/><path d="M45.7 10.3a1.4 1.4 0 0 0-1.3 1.4 1.4 1.4 0 0 0 1.3 1.3z"/><path d="M47 3.4A1.4 1.4 0 0 0 45.7 2v2.7A1.4 1.4 0 0 0 47 3.4z" fill="#202025"/><path d="M44.3 3.4a1.4 1.4 0 0 0 1.4 1.3V2a1.4 1.4 0 0 0-1.4 1.4z"/><path d="M47 20a1.4 1.4 0 0 0-1.3-1.3v2.7a1.4 1.4 0 0 0 1.3-1.3z" fill="#202025"/><path d="M44.3 20a1.4 1.4 0 0 0 1.4 1.4v-2.7a1.4 1.4 0 0 0-1.4 1.4z"/><path d="M47 28.6a1.4 1.4 0 0 0-1.3-1.3V30a1.4 1.4 0 0 0 1.3-1.4z" fill="#202025"/><path d="M45.7 27.3a1.4 1.4 0 0 0 0 2.7z"/><path d="M45.7 84V34.4L40.9 22 37 2.9h-2.2l-.5.1h-.1l-.6.2H32.5l-.8.2h-.1l-.9.2a48.6 48.6 0 0 0-5.2 1.5 37.3 37.3 0 0 0-4.8 2l-1 .6h-.1l-1 .7a.3.3 0 0 0-.1 0l-1 .7h-.1l-1 .8-1 .8a18.5 18.5 0 0 0-5.4 7.7l-.2.7-.2.6-.2.6a378 378 0 0 0-9.3 67h11.8c2.4-39.4 6.8-49.5 6.8-49.5L18.2 84h27.5z" fill="#024c28"/><path d="M90.8 87.6h.6s-2-40.8-9.4-66.9a16.5 16.5 0 0 0-.5-1.9C76.6 5.1 56.7 3 54.7 2.8l-.3.4-4 18.8-4.7 12v50h27.5l-.5-46s4.5 10.3 7 49.5h11z" fill="#006738"/><path d="M45 0H37v3l3 4.6z" fill="#d0d0d7"/><path d="M51.7 7.6l2.7-4.2.3-.5V0h-8.2z" fill="#ececee"/></svg>