<svg data-name="Warstwa 1" xmlns="http://www.w3.org/2000/svg" viewBox="0 0 384.3 336.4"><path d="M46.6 336.4H0c.5-162 46.1-264.1 46.1-264.1A92.7 92.7 0 0 1 70 37.2a72 72 0 0 1 10.8-9.3A143 143 0 0 1 97 18.3a157.8 157.8 0 0 1 31.3-12.2C140.6 2.6 145.8 0 160.9 0c0 0 8.7 31.2 31.5 31.2v285.2H72.5l10.3-182.6s-32.4 59.8-36.2 202.6z" fill="#303030"/><path d="M337.7 336.4h46.6c-.5-162-46.2-264.1-46.2-264.1a93 93 0 0 0-23.8-35.1 72.5 72.5 0 0 0-10.8-9.3 143 143 0 0 0-16.2-9.6A158.3 158.3 0 0 0 256 6.1C243.7 2.6 238.5 0 223.4 0c0 0-8.7 31.2-31.5 31.2v285.2h119.9l-10.3-182.6s32.4 59.8 36.2 202.6z" fill="#4e4a4a"/></svg>