<svg data-name="Warstwa 1" xmlns="http://www.w3.org/2000/svg" viewBox="0 0 88.4 78.2"><path d="M22.9 62.5l-10.5 8.9 21.4 6.8s3.3-2.8 10.3-2.8v-10z" fill="#acc0cc"/><path d="M65.2 62.5l10.5 8.9-21.5 6.8s-3-2.8-10.1-2.8v-10z" fill="#a1bac6"/><path d="M56.7 0a39.5 39.5 0 0 1-12.5 2.3v64a45.9 45.9 0 0 0 21-3.8l8.2-34.7s-5.9-6.2-4.8-21.4z" fill="#a1bac6"/><path d="M31.6 0a39.5 39.5 0 0 0 12.6 2.3v64A45.9 45.9 0 0 1 23 62.6l-8.2-34.7s5.9-6.2 4.8-21.4z" fill="#acc0cc"/><path d="M66.5 32.2A17.3 17.3 0 0 1 54 30.6c-5.7-3-8.8-3-10.2-2.7-1.3-.3-4.4-.2-10 2.7a17.3 17.3 0 0 1-12.6 1.6l-.7 2a15.4 15.4 0 0 0 4.7.6 20.6 20.6 0 0 0 9.5-2.3c6.5-3.4 9-2.5 9-2.5l.1-.3.1.3s2.6-1 9 2.5a20.6 20.6 0 0 0 9.5 2.3 15.3 15.3 0 0 0 4.7-.6z" fill="#93afba"/><g><path d="M21 4.3S2.9 2.8 1.3 25.7c0 0 7.9 7.8 17.8-4S21 4.3 21 4.3z" fill="#95b1bc"/><path d="M.4 26.8c12 11.4 34-14.3 21.4-23.5-1.4-1-3.1 1-1.7 2 9.7 7-8.5 28.4-17.9 19.4-1.3-1.2-3 .8-1.8 2z" fill="#90a1ad"/></g><g><path d="M67.5 4.3s18-1.5 19.6 21.4c0 0-7.9 7.8-17.8-4S67.5 4.3 67.5 4.3z" fill="#95b1bc"/><path d="M88 26.8C76 38.2 54 12.5 66.6 3.3c1.4-1 3.1 1 1.7 2-9.7 7 8.5 28.4 18 19.4 1.2-1.2 3 .8 1.7 2z" fill="#90a1ad"/></g></svg>