<svg data-name="Warstwa 1" xmlns="http://www.w3.org/2000/svg" viewBox="0 0 99 92.6"><path fill="#21201d" d="M40.4 1.4l.2 3.1V1.4h-.2zM43.3 32.2l.2 12.8V25.4l-.2 6.8z"/><path d="M43.5 45c0-10.6-14.8-28.2-14.8-28.2 1.5-3.7 5.7-6.2 5.7-6.2-1.4-2-5-.8-5-.8a17.5 17.5 0 0 1 4.8-7.2 45.3 45.3 0 0 0-9 3.2 29 29 0 0 0-9.4 6.4S2.7 22.2 0 92.5h12.8s.8-32.5 7.5-53.8l-.5 50h23.6z" fill="#21201d"/><path d="M99 92.6v-.4c-1.7-42.6-7.2-63-11.2-72.4-1.3-3.8-5.2-11.2-17-15.6a33.4 33.4 0 0 0-5-1.9 17.1 17.1 0 0 1 5.1 7.5s-3.6-1.2-5 .8c0 0 4.2 2.5 5.8 6.2 0 0-14.8 17.6-14.8 28.2l.1-12.8v-6.8l2.8-20.9v.1l-2.9 20.8v63.4h-6.7l30.4.2v-1l-.7-48a274 274 0 0 1 6.3 52.6H99zM59.9 1.4v2.1l.1-2.1H60z" fill="#623e20"/><path fill="#dedbdb" d="M50.2 23.4v-22h-9.6v3.1l2.9 21v63.2H50V23.4z"/><path d="M50.2 1.4v87.3h6.7V25.4l3-20.8V1.4h-9.7z" fill="#ececee"/><path d="M29.5 9.8s3.5-1.2 5 .8c0 0-4.2 2.5-5.8 6.2 0 0 14.8 17.6 14.8 28.3l-.2-12.8.2-6.9-3-20.8-.1-3.2h3V.3a10.4 10.4 0 0 0-9.1 2.3 17.5 17.5 0 0 0-4.8 7.2z" fill="#4c311c"/><path d="M59.2 1.4h.8L60 3.5l-.1 1-2.9 21 .2 6.7-.2 12.8c0-10.7 14.8-28.2 14.8-28.2-1.6-3.7-5.8-6.2-5.8-6.2 1.4-2 5-.8 5-.8a17.1 17.1 0 0 0-5.2-7.5 10.4 10.4 0 0 0-8.8-2v1h2.3z" fill="#865635"/></svg>