<svg version="1" xmlns="http://www.w3.org/2000/svg" viewBox="0 0 512 512"><path d="M473 452c0 12-1 23-4 34h-30l4-34c0-17-1-34-4-51-9-51-51-111-51-111v-51c0-8-1-17-3-25l-9-39c-1-13 1-26 5-39 8-26 21-49 29-75 5-17 9-35 12-52h30c-2 17-6 35-11 52-8 26-22 49-30 75-4 13-6 26-5 39 2 13 5 26 10 39l2 25v51s43 60 51 111c3 17 4 34 4 51z" fill="#00838f"/><path d="M443 452l-4 34H295a53 53 0 0 1-54 15c-10-2-18-7-25-15H43a265 265 0 0 1 0-85c8-51 51-111 51-111v-51c0-8 0-17 2-25 5-13 8-26 10-39 0-13-1-26-5-39-8-26-22-49-30-75-5-17-9-35-11-52h362c-3 17-7 35-12 52-8 26-21 49-29 75-4 13-6 26-5 39l9 39c2 8 3 17 3 25v51s42 60 51 111c3 17 4 34 4 51z" fill="#00bcd4"/><path fill="#02a9f4" d="M94 239h137v51H94z"/><path fill="#0377bc" d="M281 239h137v51H281z"/><g fill="#02a9f4"><path d="M281 239h111v51H281zM216 486H43c-3-11-4-22-4-34h166v5c0 11 4 21 11 29z"/></g><path fill="#00bcd4" d="M230 239h51v51h-51z"/><path d="M473 452c0 12-1 23-4 34H295a44 44 0 0 0 12-34h166z" fill="#0377bc"/><path d="M444 452c0 12-2 23-4 34H295a44 44 0 0 0 12-34h137z" fill="#02a9f4"/><path d="M411 136c-4 13-6 26-5 39 2 13 5 26 10 39l2 25H94c0-8 0-17 2-25 5-13 8-26 10-39 0-13-1-26-5-39-8-26-22-49-30-75-5-17-9-35-11-52h392c-2 17-6 35-11 52-8 26-22 49-30 75z" fill="#ffe0b2"/><path d="M386 136c-4 13-6 26-6 39 2 13 6 26 10 39 2 8 3 17 2 25H94c0-8 0-17 2-25 5-13 8-26 10-39 0-13-1-26-5-39-8-26-22-49-30-75-5-17-9-35-11-52h367c-3 17-7 35-12 52-8 26-22 49-29 75z" fill="#ffecb3"/><path d="M34 488c1 4 5 7 9 7h170c24 23 62 23 86 0h170c4 0 8-3 9-7a180 180 0 0 0 3-37c1-17 0-34-3-51-8-48-44-101-51-113v-48a116 116 0 0 0-7-40l-6-24c0-13 2-25 5-36 4-13 9-25 15-37a345 345 0 0 0 27-92V9l-1-2V6l-1-2V3l-2-1-1-1-2-1h-1H60a9 9 0 0 0-9 10 374 374 0 0 0 27 92c6 12 10 24 14 37 4 11 6 23 5 36l-5 24-4 13-3 27v48c-8 12-43 65-51 113a272 272 0 0 0 0 88zm14-27h149c0 6 2 11 4 17H50l-2-17zm263 17c2-6 4-11 4-17h149l-2 17H311zm-72-196v-35h34v35h-34zm-137 0v-35h120v35H102zm188-35h119v35H290v-35zM94 95a328 328 0 0 1-24-78h372a348 348 0 0 1-24 78c-6 12-11 25-15 39-4 13-6 27-6 42 1 10 4 19 7 28l3 12 2 14H103l1-14 4-12c3-9 5-18 6-28 1-14-1-29-5-42-4-14-10-27-15-39zM51 402c7-41 38-90 47-103h149v85a9 9 0 0 0 17 0v-85h150c8 13 40 62 47 103l3 42H307h-2l-2 1-1 1-2 2-1 1v2l-1 1v1l1 4c0 8-4 17-10 24a46 46 0 0 1-66 0 36 36 0 0 1-10-28v-1-1-2l-1-1-2-2-1-1-2-1h-1H47c0-14 2-28 4-42z"/><path d="M256 205c5 0 8-4 8-9v-8a9 9 0 0 0-17 0v8c0 5 4 9 9 9zM145 154a9 9 0 0 0 0 17c21 0 39 15 43 35a9 9 0 0 0 17-3c-6-29-31-49-60-49zM367 154c-29 0-54 20-60 49a9 9 0 0 0 17 3c4-20 22-35 43-35a9 9 0 1 0 0-17zM221 120c-54 7-78-14-79-15a9 9 0 0 0-12 12c1 1 22 21 68 21 9 0 17 0 25-2a9 9 0 1 0-2-16zM369 105c-1 1-24 22-78 15a9 9 0 0 0-2 16c8 2 16 2 25 2 45 0 66-20 67-21a9 9 0 0 0-12-12zM153 85c9 0 17-3 22-9 6-5 13-8 21-8a33 33 0 0 0 34-34 9 9 0 1 0-17 0 16 16 0 0 1-17 17c-11 0-23 4-31 12-5 4-7 5-12 5-7-1-14-5-17-12a9 9 0 1 0-16 8c7 12 19 20 33 21zM316 68c7 0 15 3 20 8 6 6 14 9 22 9 14-1 27-9 34-21a9 9 0 0 0-16-8c-3 7-10 11-18 12-4 0-6-1-11-5-8-8-20-12-31-12a16 16 0 0 1-17-17 9 9 0 1 0-18 0 33 33 0 0 0 35 34z"/></svg>