<svg height="512" viewBox="-1 0 384 384" width="512" xmlns="http://www.w3.org/2000/svg"><path d="M309 193l2 1c6 15 20 47 18 80-1 14-4 84-7 94H68c-3-10-6-80-7-94-2-33 13-67 19-81l-32-66-32-32V16h351v79l-25 32zm0 0" fill="#4dd0e1"/><path d="M379 105c2-3 4-6 4-10V16c0-9-8-16-16-16H16C7 0 0 7 0 16v79c0 4 2 8 5 11l30 31 28 56c-8 17-20 50-18 82l1 17c3 55 5 74 7 81s8 11 15 11h254c7 0 13-4 15-11 3-7 4-26 7-81l1-17c2-34-10-66-17-83l28-56zm-66 168a1515 1515 0 0 0-5 79h-96a16 16 0 0 0-13-25h-16a16 16 0 0 0-13 25H82a1988 1988 0 0 1-5-79c-1-14 2-28 5-40l18 35a16 16 0 1 0 29-14l-46-92 5 2c3 1 6 2 9 1l66-7a16 16 0 1 0-4-32l-61 7-41-19-25-26V32h319v58l-19 24-40 19-61-7a16 16 0 0 0-4 32l66 7c3 1 6 0 9-1l5-2-45 92a16 16 0 0 0 28 14l18-36c3 13 6 27 5 41zm0 0" fill="#012e52"/></svg>