<?xml version="1.0" encoding="iso-8859-1"?>
<!-- Generator: Adobe Illustrator 19.0.0, SVG Export Plug-In . SVG Version: 6.00 Build 0)  -->
<svg version="1.1" id="Capa_1" xmlns="http://www.w3.org/2000/svg" xmlns:xlink="http://www.w3.org/1999/xlink" x="0px" y="0px"
	 viewBox="0 0 512 512" style="enable-background:new 0 0 512 512;" xml:space="preserve">
<g>
	<g transform="translate(1 1)">
		<path style="fill:#00838F;" d="M471.896,451.267c-0.09,11.471-1.319,22.905-3.669,34.133h-30.379
			c2.351-11.228,3.58-22.662,3.669-34.133c0.438-17.145-0.791-34.292-3.669-51.2c-8.533-51.2-51.2-110.933-51.2-110.933v-51.2
			c0.148-8.313-0.653-16.616-2.389-24.747c-4.393-12.708-7.62-25.79-9.643-39.083c-0.618-13.178,1.145-26.36,5.205-38.912
			c7.68-25.856,21.504-49.323,29.355-75.093c5.147-17.215,9.025-34.784,11.605-52.565h30.379
			c-2.58,17.782-6.459,35.35-11.605,52.565c-7.851,25.771-21.675,49.237-29.355,75.093c-4.06,12.552-5.824,25.734-5.205,38.912
			c2.023,13.293,5.25,26.374,9.643,39.083c1.736,8.131,2.538,16.434,2.389,24.747v51.2c0,0,42.667,59.733,51.2,110.933
			C471.105,416.974,472.334,434.121,471.896,451.267z"/>
		<path style="fill:#00BCD4;" d="M441.518,451.267c-0.09,11.471-1.319,22.905-3.669,34.133H294.403
			c-10.173,11.007-24.522,17.205-39.509,17.067c-5.138-0.003-10.25-0.721-15.189-2.133c-9.346-2.599-17.774-7.774-24.32-14.933
			H41.56c-2.351-11.228-3.58-22.662-3.669-34.133c-0.438-17.145,0.791-34.292,3.669-51.2c8.533-51.2,51.2-110.933,51.2-110.933
			v-51.2c-0.149-8.313,0.653-16.616,2.389-24.747c4.393-12.708,7.62-25.79,9.643-39.083c0.618-13.178-1.145-26.36-5.205-38.912
			c-7.68-25.856-21.504-49.323-29.355-75.093c-5.147-17.215-9.025-34.784-11.605-52.565h362.155
			c-2.58,17.782-6.459,35.35-11.605,52.565c-7.851,25.771-21.675,49.237-29.355,75.093c-4.06,12.552-5.824,25.734-5.205,38.912
			c2.023,13.293,5.25,26.374,9.643,39.083c1.736,8.131,2.538,16.434,2.389,24.747v51.2c0,0,42.667,59.733,51.2,110.933
			C440.726,416.974,441.955,434.121,441.518,451.267z"/>
		<rect x="92.76" y="237.933" style="fill:#02A9F4;" width="136.533" height="51.2"/>
		<rect x="280.494" y="237.933" style="fill:#0377BC;" width="136.533" height="51.2"/>
		<g>
			<rect x="280.494" y="237.933" style="fill:#02A9F4;" width="110.933" height="51.2"/>
			<path style="fill:#02A9F4;" d="M215.384,485.4H41.56c-2.351-11.228-3.58-22.662-3.669-34.133H203.95
				c-0.173,1.416-0.258,2.841-0.256,4.267C203.721,466.6,207.892,477.255,215.384,485.4z"/>
		</g>
		<rect x="229.294" y="237.933" style="fill:#00BCD4;" width="51.2" height="51.2"/>
		<path style="fill:#0377BC;" d="M471.896,451.267c-0.09,11.471-1.319,22.905-3.669,34.133H294.403
			c7.492-8.145,11.663-18.8,11.691-29.867c0.002-1.426-0.083-2.851-0.256-4.267H471.896z"/>
		<path style="fill:#02A9F4;" d="M442.627,451.267c-0.09,11.471-1.319,22.905-3.669,34.133H294.403
			c7.492-8.145,11.663-18.8,11.691-29.867c0.002-1.426-0.083-2.851-0.256-4.267H442.627z"/>
		<path style="fill:#FFE0B2;" d="M410.2,135.192c-4.06,12.552-5.824,25.734-5.205,38.912c2.023,13.293,5.25,26.374,9.643,39.083
			c1.736,8.131,2.538,16.434,2.389,24.747H92.76c-0.149-8.313,0.653-16.616,2.389-24.747c4.393-12.708,7.62-25.79,9.643-39.083
			c0.618-13.178-1.145-26.36-5.205-38.912c-7.68-25.856-21.504-49.323-29.355-75.093c-5.147-17.215-9.025-34.784-11.605-52.565
			H451.16c-2.58,17.782-6.459,35.35-11.605,52.565C431.704,85.869,417.88,109.336,410.2,135.192z"/>
		<path style="fill:#FFECB3;" d="M384.6,135.192c-4.06,12.552-5.824,25.734-5.205,38.912c2.023,13.293,5.25,26.374,9.643,39.083
			c1.736,8.131,2.538,16.434,2.389,24.747H92.76c-0.149-8.313,0.653-16.616,2.389-24.747c4.393-12.708,7.62-25.79,9.643-39.083
			c0.618-13.178-1.145-26.36-5.205-38.912c-7.68-25.856-21.504-49.323-29.355-75.093c-5.147-17.215-9.025-34.784-11.605-52.565
			H425.56c-2.58,17.782-6.459,35.35-11.605,52.565C406.104,85.869,392.28,109.336,384.6,135.192z"/>
	</g>
	<g>
		<path d="M34.277,488.458c0.946,3.805,4.363,6.475,8.283,6.475h170.327c24.157,22.756,61.859,22.756,86.016,0h170.324
			c3.921,0,7.337-2.67,8.283-6.475c2.371-11.253,3.659-22.708,3.847-34.207c0.201-0.645,0.326-1.311,0.373-1.985
			c-0.056-0.467-0.156-0.927-0.297-1.375c0.347-17.158-0.922-34.31-3.791-51.229c-7.943-47.648-43.229-100.822-51.083-112.209
			v-48.521l-0.009-0.046l0.009-0.049c0.152-8.975-0.738-17.938-2.654-26.708c-1.062-4.187-2.363-8.413-3.679-12.675
			c-2.856-8.06-4.783-16.42-5.742-24.917c-0.54-12.169,1.117-24.335,4.892-35.917c4.046-12.624,8.873-24.984,14.454-37.008
			c5.708-12.366,10.679-25.059,14.888-38.013c5.281-17.623,9.253-35.612,11.883-53.821c0.032-0.216-0.048-0.413-0.033-0.628
			c0.015-0.215,0.125-0.399,0.125-0.618c-0.047-0.356-0.119-0.709-0.213-1.056c-0.055-0.564-0.167-1.122-0.336-1.663
			c-0.184-0.507-0.417-0.995-0.697-1.456c-0.256-0.474-0.558-0.921-0.901-1.336c-0.361-0.401-0.76-0.765-1.192-1.089
			c-0.415-0.344-0.864-0.647-1.339-0.903c-0.51-0.245-1.043-0.438-1.592-0.574c-0.329-0.145-0.668-0.267-1.014-0.366
			c-0.217-0.032-0.414,0.049-0.629,0.034C452.566,0.109,452.381,0,452.16,0H59.627c-2.48,0.001-4.838,1.081-6.458,2.958
			c-1.621,1.878-2.345,4.367-1.983,6.821c2.63,18.208,6.602,36.198,11.883,53.821c4.208,12.953,9.179,25.646,14.888,38.013
			C83.538,113.638,88.365,126,92.41,138.625c3.775,11.58,5.432,23.745,4.892,35.913c-0.959,8.497-2.886,16.857-5.742,24.917
			c-1.317,4.262-2.617,8.488-3.679,12.675c-1.916,8.77-2.806,17.733-2.654,26.708l0.009,0.049l-0.009,0.046v48.521
			c-7.855,11.386-43.141,64.561-51.083,112.217c-2.974,17.435-4.241,35.119-3.783,52.8C30.46,464.568,31.772,476.624,34.277,488.458
			z M47.811,460.8h148.751c0.475,5.895,1.951,11.667,4.363,17.067H49.631C48.999,473.856,48.272,468.04,47.811,460.8z
			 M310.861,477.867c2.413-5.4,3.888-11.171,4.364-17.067h148.754c-0.461,7.237-1.19,13.053-1.822,17.067H310.861z M238.827,281.6
			v-34.133h34.133V281.6H238.827z M102.294,281.6v-34.133H221.76V281.6H102.294z M290.027,247.467h119.467V281.6H290.027V247.467z
			 M93.585,94.758c-5.44-11.751-10.179-23.814-14.192-36.125c-4.102-13.642-7.36-27.524-9.754-41.567h372.462
			c-2.382,14.041-5.624,27.923-9.708,41.567c-4.013,12.311-8.752,24.374-14.192,36.125c-5.863,12.67-10.934,25.693-15.183,38.992
			c-4.366,13.535-6.249,27.749-5.558,41.954c1.023,9.815,3.19,19.476,6.458,28.788c1.229,3.975,2.45,7.913,3.438,11.821
			c1.056,4.628,1.676,9.344,1.85,14.088H102.581c0.174-4.743,0.794-9.46,1.85-14.088c0.987-3.908,2.208-7.846,3.437-11.821
			c3.268-9.311,5.436-18.973,6.458-28.788c0.691-14.204-1.192-28.416-5.558-41.95C104.52,120.454,99.449,107.43,93.585,94.758z
			 M50.977,402.471c6.966-41.782,38.321-90.53,47.278-103.804H247.36V384c0,4.713,3.821,8.533,8.533,8.533
			c4.713,0,8.533-3.82,8.533-8.533v-85.333h149.108c8.958,13.265,40.3,61.961,47.276,103.796
			c2.284,13.641,3.486,27.441,3.593,41.271H306.839c-0.183,0-0.335,0.093-0.515,0.104c-0.186,0.013-0.356-0.064-0.543-0.037
			c-0.376,0.096-0.745,0.22-1.103,0.37c-0.556,0.125-1.098,0.307-1.617,0.542c-0.472,0.255-0.918,0.555-1.331,0.897
			c-0.904,0.601-1.635,1.428-2.121,2.399c-0.293,0.459-0.539,0.945-0.736,1.453c-0.167,0.538-0.278,1.091-0.333,1.652
			c-0.106,0.378-0.184,0.764-0.233,1.154c0,0.187,0.095,0.343,0.107,0.528c0.011,0.182-0.063,0.347-0.04,0.531
			c0.129,1.065,0.191,2.136,0.188,3.208c-0.006,8.961-3.398,17.588-9.496,24.154c-8.638,9.098-20.635,14.249-33.181,14.246
			c-12.546-0.003-24.54-5.16-33.173-14.263c-6.091-6.562-9.479-15.184-9.483-24.137c-0.004-1.072,0.059-2.144,0.188-3.209
			c0.023-0.183-0.051-0.348-0.04-0.531c0.012-0.184,0.107-0.341,0.107-0.528c-0.049-0.39-0.127-0.776-0.233-1.154
			c-0.055-0.56-0.167-1.114-0.333-1.652c-0.196-0.507-0.443-0.994-0.736-1.453c-0.486-0.971-1.217-1.798-2.121-2.399
			c-0.413-0.342-0.859-0.643-1.331-0.897c-0.519-0.236-1.061-0.417-1.617-0.542c-0.358-0.15-0.727-0.273-1.103-0.37
			c-0.188-0.026-0.357,0.05-0.544,0.037c-0.18-0.011-0.333-0.104-0.515-0.104H47.384C47.491,429.906,48.692,416.109,50.977,402.471z
			"/>
		<path d="M255.894,204.8c4.713,0,8.533-3.821,8.533-8.533v-8.533c0-4.713-3.821-8.533-8.533-8.533
			c-4.713,0-8.533,3.821-8.533,8.533v8.533C247.36,200.98,251.181,204.8,255.894,204.8z"/>
		<path d="M144.96,153.6c-4.713,0-8.533,3.821-8.533,8.533c0,4.713,3.821,8.533,8.533,8.533
			c21.006,0.151,38.962,15.162,42.833,35.808c0.798,3.984,4.295,6.854,8.358,6.858c0.565,0,1.129-0.056,1.683-0.167
			c2.219-0.444,4.171-1.752,5.426-3.635c1.255-1.883,1.71-4.188,1.266-6.407C199.085,174.487,174.11,153.723,144.96,153.6z"/>
		<path d="M366.827,153.6c-29.15,0.123-54.125,20.887-59.567,49.525c-0.444,2.219,0.011,4.524,1.266,6.407
			c1.255,1.883,3.207,3.191,5.426,3.635c0.554,0.111,1.118,0.166,1.684,0.167c4.064-0.005,7.56-2.874,8.358-6.858
			c4.021-20.574,21.909-35.516,42.871-35.808c4.713-0.01,8.525-3.839,8.515-8.552C375.369,157.402,371.54,153.59,366.827,153.6z"/>
		<path d="M220.552,119.554c-54.021,7.675-77.067-13.675-78.138-14.7c-3.352-3.276-8.719-3.235-12.02,0.091
			c-3.302,3.327-3.302,8.694,0,12.021c1.004,1.004,21.917,21.308,67.842,21.308c8.277-0.022,16.543-0.634,24.733-1.829
			c4.665-0.667,7.905-4.99,7.238-9.654C229.539,122.127,225.217,118.887,220.552,119.554L220.552,119.554z"/>
		<path d="M369.381,104.846c-0.95,0.921-24,22.429-78.146,14.708c-4.664-0.667-8.987,2.573-9.654,7.238
			c-0.667,4.665,2.573,8.987,7.237,9.654c8.191,1.196,16.456,1.807,24.733,1.829c45.921,0,66.837-20.304,67.842-21.308
			c3.297-3.326,3.298-8.688,0.001-12.014C378.098,101.626,372.737,101.578,369.381,104.846L369.381,104.846z"/>
		<path d="M153.494,85.333c8.213-0.154,16.059-3.432,21.942-9.167c5.513-5.395,13.02-8.257,20.725-7.9
			c9.132,0.268,17.971-3.242,24.431-9.702s9.97-15.299,9.702-24.431c0-4.713-3.82-8.533-8.533-8.533s-8.533,3.821-8.533,8.533
			c0.298,4.611-1.404,9.128-4.672,12.395c-3.267,3.267-7.784,4.97-12.395,4.672c-11.641-0.371-22.961,3.848-31.521,11.746
			c-4.517,3.688-6.704,5.321-11.146,5.321c-7.686-0.881-14.431-5.528-17.992-12.396c-2.121-4.209-7.252-5.902-11.46-3.781
			c-4.209,2.121-5.902,7.252-3.781,11.46C126.701,76.182,139.341,84.467,153.494,85.333z"/>
		<path d="M315.627,68.267c7.705-0.357,15.212,2.505,20.725,7.9c5.882,5.734,13.728,9.012,21.942,9.167
			c14.153-0.866,26.793-9.151,33.233-21.783c2.078-4.202,0.377-9.294-3.809-11.404c-4.186-2.11-9.291-0.449-11.433,3.721
			c-3.561,6.869-10.305,11.517-17.992,12.4c-4.442,0-6.629-1.633-11.146-5.321c-8.56-7.898-19.88-12.117-31.521-11.746
			c-4.611,0.298-9.127-1.404-12.395-4.672c-3.267-3.267-4.97-7.784-4.672-12.395c0-4.713-3.82-8.533-8.533-8.533
			s-8.533,3.821-8.533,8.533c-0.268,9.132,3.242,17.971,9.702,24.431C297.656,65.024,306.495,68.535,315.627,68.267z"/>
	</g>
</g>
<g>
</g>
<g>
</g>
<g>
</g>
<g>
</g>
<g>
</g>
<g>
</g>
<g>
</g>
<g>
</g>
<g>
</g>
<g>
</g>
<g>
</g>
<g>
</g>
<g>
</g>
<g>
</g>
<g>
</g>
</svg>
