<svg height="384pt" viewBox="-1 0 384 384.008" width="384pt" xmlns="http://www.w3.org/2000/svg"><path d="m309.363281 193.289062 1.441407.71875c6.480468 14.640626 20.480468 47.28125 18.160156 79.839844-.960938 13.839844-3.839844 84.558594-6.960938 94.160156h-253.917968c-3.121094-9.601562-6-80.320312-6.960938-94.160156-2.320312-32.558594 12.71875-66.71875 19.199219-81.28125l-32.320313-65.4375-32-32.082031v-79.039063h350.640625v79.441407l-24.558593 31.679687zm0 0" fill="#4dd0e1"/><path d="m379.292969 105.246094c2.167969-2.804688 3.351562-6.253906 3.351562-9.804688v-79.441406c0-8.832031-7.167969-16-16-16h-350.640625c-8.832031 0-15.99999975 7.167969-15.99999975 16v79.039062c0 4.234376 1.67968775 8.296876 4.67187475 11.296876l30.152344 30.230468 27.871094 56.355469c-7.457031 17.390625-19.816407 50.0625-17.535157 82.03125.214844 3.167969.535157 9.382813.945313 17.160156 2.847656 54.765625 4.429687 73.648438 6.757813 80.832031 2.144531 6.589844 8.289062 11.0625 15.21875 11.0625h253.917968c6.929688 0 13.082032-4.472656 15.214844-11.0625 2.328125-7.175781 3.90625-26.066406 6.761719-80.832031.40625-7.777343.726562-13.984375.945312-17.136719 2.382813-33.542968-10.3125-66.234374-17.320312-82.488281l28.101562-56.824219zm-66.289063 167.496094c-.222656 3.273437-.558594 9.691406-.976562 17.714843-.773438 14.839844-2.335938 44.808594-3.839844 61.550781h-95.839844c1.695313-2.542968 2.695313-5.59375 2.695313-8.871093 0-8.832031-7.167969-16-16-16h-15.839844c-8.832031 0-16 7.167969-16 16 0 3.289062 1 6.335937 2.695313 8.871093h-87.964844c-1.539063-16.894531-3.097656-46.742187-3.867188-61.550781-.414062-8.023437-.75-14.441406-.972656-17.746093-.953125-13.382813 1.644531-27.519532 5.246094-40.078126l17.488281 35.359376c2.792969 5.632812 8.457031 8.902343 14.351563 8.894531 2.382812 0 4.808593-.527344 7.089843-1.664063 7.917969-3.917968 11.160157-13.511718 7.230469-21.4375l-45.671875-92.28125 5.160156 2.464844c2.726563 1.296875 5.742188 1.800781 8.769531 1.457031l66.167969-7.769531c8.773438-1.03125 15.054688-8.976562 14.023438-17.761719-1.023438-8.773437-9.035157-15.117187-17.761719-14.023437l-61.566406 7.226562-40.226563-19.226562-25.375-25.445313v-56.417969h318.640625v57.960938l-18.886718 24.367188-39.28125 18.769531-61.558594-7.226563c-8.714844-1.078125-16.730469 5.25-17.761719 14.023438-1.03125 8.785156 5.25 16.730468 14.023437 17.761718l66.160157 7.769532c3.015625.335937 6.03125-.160156 8.769531-1.457032l5.136719-2.457031-45.65625 92.28125c-3.914063 7.917969-.671875 17.511719 7.246093 21.4375 2.28125 1.128907 4.695313 1.65625 7.082032 1.65625 5.894531 0 11.558594-3.261719 14.359375-8.902343l17.6875-35.761719c3.472656 12.402343 6.015625 26.617187 5.023437 40.511719zm0 0" fill="#012e52"/></svg>